<svg xmlns="http://www.w3.org/2000/svg" viewBox="0 0 24 24" fill="none" role="img" aria-labelledby="t">
  <title id="t">DP3 — Go — Adaptive Governance Supporting an Exponentially Growing Community</title>
  <rect x="1.0" y="1.0" width="22" height="22" rx="2.4" fill="#f5e9c8" fill-opacity="0.04" stroke="#b8860b" stroke-width="0.18"/>
  <path d="M 9 4.0 L 10.2 4.0 L 10.5 6.0 A 3.6 3.6 0 0 1 12.0 6.5 L 13.4 5.0 L 14.3 5.9 L 13.0 7.4 A 3.6 3.6 0 0 1 13.6 8.9 L 15.5 9.2 L 15.5 10.4 L 13.6 10.7 A 3.6 3.6 0 0 1 13.0 12.2 L 14.3 13.7 L 13.4 14.6 L 12.0 13.1 A 3.6 3.6 0 0 1 10.5 13.6 L 10.2 15.6 L 9.0 15.6 L 8.7 13.6 A 3.6 3.6 0 0 1 7.2 13.1 L 5.8 14.6 L 4.9 13.7 L 6.2 12.2 A 3.6 3.6 0 0 1 5.6 10.7 L 3.7 10.4 L 3.7 9.2 L 5.6 8.9 A 3.6 3.6 0 0 1 6.2 7.4 L 4.9 5.9 L 5.8 5.0 L 7.2 6.5 A 3.6 3.6 0 0 1 8.7 6.0 L 9.0 4.0 Z" fill="none" stroke="#06b6d4" stroke-width="2.2" stroke-linejoin="round"/><circle cx="9.6" cy="9.8" r="1.2" fill="#06b6d4" stroke="none" stroke-width="2.2" stroke-opacity="1.0"/><path d="M 16 13.5 L 16.9 13.5 L 17.1 14.7 A 2.4 2.4 0 0 1 18.1 15.1 L 19.0 14.4 L 19.6 15.0 L 19.0 16.0 A 2.4 2.4 0 0 1 19.3 17.0 L 20.5 17.2 L 20.5 18.1 L 19.3 18.3 A 2.4 2.4 0 0 1 19.0 19.3 L 19.6 20.3 L 19.0 20.9 L 18.1 20.2 A 2.4 2.4 0 0 1 17.1 20.6 L 16.9 21.8 L 16.0 21.8 L 15.8 20.6 A 2.4 2.4 0 0 1 14.8 20.2 L 13.9 20.9 L 13.3 20.3 L 13.9 19.3 A 2.4 2.4 0 0 1 13.6 18.3 L 12.4 18.1 L 12.4 17.2 L 13.6 17.0 A 2.4 2.4 0 0 1 13.9 16.0 L 13.3 15.0 L 13.9 14.4 L 14.8 15.1 A 2.4 2.4 0 0 1 15.8 14.7 L 16 13.5 Z" fill="none" stroke="#06b6d4" stroke-width="2.2" stroke-linejoin="round"/><circle cx="16.45" cy="17.65" r="0.8" fill="#06b6d4" stroke="none" stroke-width="2.2" stroke-opacity="1.0"/>
</svg>
