<svg xmlns="http://www.w3.org/2000/svg" viewBox="0 0 24 24" fill="none" stroke-linecap="round" stroke-linejoin="round" role="img" aria-labelledby="t">
  <title id="t">DP5 — Decentralized Namespace</title>
  <g stroke="#10b981" fill="none">
    <circle cx="12" cy="12" r="9.5" stroke="#10b981" stroke-width="2" fill="none"/><line x1="12" y1="12" x2="21.50" y2="12.00" stroke="#10b981" stroke-width="2" stroke-linecap="round"/><line x1="12" y1="12" x2="18.72" y2="18.72" stroke="#10b981" stroke-width="2" stroke-linecap="round"/><line x1="12" y1="12" x2="12.00" y2="21.50" stroke="#10b981" stroke-width="2" stroke-linecap="round"/><line x1="12" y1="12" x2="5.28" y2="18.72" stroke="#10b981" stroke-width="2" stroke-linecap="round"/><line x1="12" y1="12" x2="2.50" y2="12.00" stroke="#10b981" stroke-width="2" stroke-linecap="round"/><line x1="12" y1="12" x2="5.28" y2="5.28" stroke="#10b981" stroke-width="2" stroke-linecap="round"/><line x1="12" y1="12" x2="12.00" y2="2.50" stroke="#10b981" stroke-width="2" stroke-linecap="round"/><line x1="12" y1="12" x2="18.72" y2="5.28" stroke="#10b981" stroke-width="2" stroke-linecap="round"/><circle cx="21.50" cy="12.00" r="1.1" fill="#10b981"/><circle cx="18.72" cy="18.72" r="1.1" fill="#10b981"/><circle cx="12.00" cy="21.50" r="1.1" fill="#10b981"/><circle cx="5.28" cy="18.72" r="1.1" fill="#10b981"/><circle cx="2.50" cy="12.00" r="1.1" fill="#10b981"/><circle cx="5.28" cy="5.28" r="1.1" fill="#10b981"/><circle cx="12.00" cy="2.50" r="1.1" fill="#10b981"/><circle cx="18.72" cy="5.28" r="1.1" fill="#10b981"/><circle cx="12" cy="12" r="2.4" fill="#10b981"/><circle cx="12" cy="12" r="1.1" fill="#0a0e1a"/>
  </g>
</svg>
