<svg xmlns="http://www.w3.org/2000/svg" viewBox="0 0 24 24" fill="none" role="img" aria-labelledby="t">
  <title id="t">DP5 — Ns — Decentralized Namespace</title>
  <rect x="1.0" y="1.0" width="22" height="22" rx="2.4" fill="#f5e9c8" fill-opacity="0.04" stroke="#b8860b" stroke-width="0.18"/>
  <circle cx="12" cy="12" r="8.5" fill="none" stroke="#10b981" stroke-width="2.2" stroke-opacity="1.0"/><circle cx="12" cy="12" r="5.5" fill="none" stroke="#10b981" stroke-width="1.4" stroke-opacity="0.6"/><circle cx="12" cy="12" r="1.4" fill="#10b981" stroke="none" stroke-width="2.2" stroke-opacity="1.0"/><line x1="17.50" y1="12.00" x2="20.50" y2="12.00" stroke="#10b981" stroke-width="1.4" stroke-linecap="round"/><circle cx="20.5" cy="12.0" r="1.0" fill="#10b981" stroke="none" stroke-width="2.2" stroke-opacity="1.0"/><line x1="15.89" y1="15.89" x2="18.01" y2="18.01" stroke="#10b981" stroke-width="1.4" stroke-linecap="round"/><circle cx="18.01" cy="18.01" r="1.0" fill="#10b981" stroke="none" stroke-width="2.2" stroke-opacity="1.0"/><line x1="12.00" y1="17.50" x2="12.00" y2="20.50" stroke="#10b981" stroke-width="1.4" stroke-linecap="round"/><circle cx="12.0" cy="20.5" r="1.0" fill="#10b981" stroke="none" stroke-width="2.2" stroke-opacity="1.0"/><line x1="8.11" y1="15.89" x2="5.99" y2="18.01" stroke="#10b981" stroke-width="1.4" stroke-linecap="round"/><circle cx="5.99" cy="18.01" r="1.0" fill="#10b981" stroke="none" stroke-width="2.2" stroke-opacity="1.0"/><line x1="6.50" y1="12.00" x2="3.50" y2="12.00" stroke="#10b981" stroke-width="1.4" stroke-linecap="round"/><circle cx="3.5" cy="12.0" r="1.0" fill="#10b981" stroke="none" stroke-width="2.2" stroke-opacity="1.0"/><line x1="8.11" y1="8.11" x2="5.99" y2="5.99" stroke="#10b981" stroke-width="1.4" stroke-linecap="round"/><circle cx="5.99" cy="5.99" r="1.0" fill="#10b981" stroke="none" stroke-width="2.2" stroke-opacity="1.0"/><line x1="12.00" y1="6.50" x2="12.00" y2="3.50" stroke="#10b981" stroke-width="1.4" stroke-linecap="round"/><circle cx="12.0" cy="3.5" r="1.0" fill="#10b981" stroke="none" stroke-width="2.2" stroke-opacity="1.0"/><line x1="15.89" y1="8.11" x2="18.01" y2="5.99" stroke="#10b981" stroke-width="1.4" stroke-linecap="round"/><circle cx="18.01" cy="5.99" r="1.0" fill="#10b981" stroke="none" stroke-width="2.2" stroke-opacity="1.0"/>
</svg>
