<svg xmlns="http://www.w3.org/2000/svg" viewBox="0 0 24 24" fill="none" stroke-linecap="round" stroke-linejoin="round" role="img" aria-labelledby="t">
  <title id="t">DP10 – Education</title>
  <g stroke="#d946ef" fill="none">
    <circle cx="12" cy="4.5" r="1.7" fill="#d946ef"/><line x1="12" y1="1.5" x2="12" y2="0.5" stroke="#d946ef" stroke-width="1.4" stroke-linecap="round"/><line x1="9.3" y1="2.3" x2="8.5" y2="1.5" stroke="#d946ef" stroke-width="1.4" stroke-linecap="round"/><line x1="14.7" y1="2.3" x2="15.5" y2="1.5" stroke="#d946ef" stroke-width="1.4" stroke-linecap="round"/><line x1="9.3" y1="6.7" x2="8.5" y2="7.5" stroke="#d946ef" stroke-width="1.4" stroke-linecap="round"/><line x1="14.7" y1="6.7" x2="15.5" y2="7.5" stroke="#d946ef" stroke-width="1.4" stroke-linecap="round"/><path d="M4 10 Q8 8 12 10 Q16 8 20 10 L20 19 Q16 17 12 19 Q8 17 4 19 Z" stroke="#d946ef" stroke-width="2" fill="none" stroke-linejoin="round"/><line x1="12" y1="10" x2="12" y2="19" stroke="#d946ef" stroke-width="1.5"/><line x1="6" y1="13" x2="10" y2="12.4" stroke="#d946ef" stroke-width="1" stroke-opacity="0.6"/><line x1="6" y1="15.5" x2="10" y2="14.9" stroke="#d946ef" stroke-width="1" stroke-opacity="0.6"/><line x1="14" y1="12.4" x2="18" y2="13" stroke="#d946ef" stroke-width="1" stroke-opacity="0.6"/><line x1="14" y1="14.9" x2="18" y2="15.5" stroke="#d946ef" stroke-width="1" stroke-opacity="0.6"/>
  </g>
</svg>
