<svg xmlns="http://www.w3.org/2000/svg" viewBox="0 0 24 24" fill="none" stroke-linecap="round" stroke-linejoin="round" role="img" aria-labelledby="t">
  <title id="t">DP11 — Safe &amp; Ethical AI</title>
  <g stroke="#7c3aed" fill="none">
    <path d="M12 4.5 Q7 4.5 7 8 Q4.5 9 4.5 12 Q4.5 15 7 16 Q7 19 10.5 19 Q12 20.5 13.5 19 Q17 19 17 16 Q19.5 15 19.5 12 Q19.5 9 17 8 Q17 4.5 12 4.5 Z" stroke="#7c3aed" stroke-width="2.2" fill="none" stroke-linejoin="round"/><path d="M12 5.5 Q11.2 9 12 12 Q12.8 15 12 18.5" stroke="#7c3aed" stroke-width="1.4" fill="none" stroke-linecap="round" stroke-opacity="0.85"/><circle cx="9" cy="10" r="0.95" fill="#7c3aed"/><circle cx="15" cy="10" r="0.95" fill="#7c3aed"/><circle cx="9" cy="14" r="0.95" fill="#7c3aed"/><circle cx="15" cy="14" r="0.95" fill="#7c3aed"/><line x1="9.95" y1="10" x2="14.05" y2="10" stroke="#7c3aed" stroke-width="1.1" stroke-opacity="0.75"/><line x1="9.95" y1="14" x2="14.05" y2="14" stroke="#7c3aed" stroke-width="1.1" stroke-opacity="0.75"/><circle cx="12" cy="12" r="1.3" fill="#7c3aed"/>
  </g>
</svg>
