<svg xmlns="http://www.w3.org/2000/svg" viewBox="0 0 24 24" fill="none" role="img" aria-labelledby="t">
  <title id="t">DP11 — Ai — Safe and Ethical AI</title>
  <rect x="1.0" y="1.0" width="22" height="22" rx="2.4" fill="#f5e9c8" fill-opacity="0.04" stroke="#b8860b" stroke-width="0.18"/>
  <path d="M 8 4 Q 4 4 4 8 Q 2 9 3 12 Q 2 15 4 16 Q 4 20 8 20 L 12 20 L 12 4 Z" fill="none" stroke="#7c3aed" stroke-width="2.2" stroke-linejoin="round"/><path d="M 16 4 Q 20 4 20 8 Q 22 9 21 12 Q 22 15 20 16 Q 20 20 16 20 L 12 20 L 12 4 Z" fill="none" stroke="#7c3aed" stroke-width="2.2" stroke-linejoin="round"/><path d="M 6 8 Q 8 9 6 11" fill="none" stroke="#7c3aed" stroke-width="1.4" stroke-opacity="1.0" stroke-linejoin="round" stroke-linecap="round"/><path d="M 5 13 Q 8 14 6 16" fill="none" stroke="#7c3aed" stroke-width="1.4" stroke-opacity="1.0" stroke-linejoin="round" stroke-linecap="round"/><path d="M 18 8 Q 16 9 18 11" fill="none" stroke="#7c3aed" stroke-width="1.4" stroke-opacity="1.0" stroke-linejoin="round" stroke-linecap="round"/><path d="M 19 13 Q 16 14 18 16" fill="none" stroke="#7c3aed" stroke-width="1.4" stroke-opacity="1.0" stroke-linejoin="round" stroke-linecap="round"/><path d="M 12 4 L 12 20" fill="none" stroke="#7c3aed" stroke-width="2.2" stroke-opacity="1.0" stroke-linejoin="round" stroke-linecap="round"/>
</svg>
