<svg xmlns="http://www.w3.org/2000/svg" viewBox="0 0 24 24" fill="none" stroke-linecap="round" stroke-linejoin="round" role="img" aria-labelledby="t">
  <title id="t">DP13 – AI Containment</title>
  <g stroke="#7c3aed" fill="none">
    <path d="M3.5 17 Q3.5 4.5 12 4.5 Q20.5 4.5 20.5 17" stroke="#7c3aed" stroke-width="2.4" fill="none" stroke-linecap="round"/><line x1="2.5" y1="17" x2="21.5" y2="17" stroke="#7c3aed" stroke-width="2.4" stroke-linecap="round"/><rect x="8" y="8.5" width="8" height="8" rx="1" stroke="#7c3aed" stroke-width="1.8" fill="none"/><line x1="10" y1="8.5" x2="10" y2="6.8" stroke="#7c3aed" stroke-width="1.3" stroke-linecap="round"/><line x1="14" y1="8.5" x2="14" y2="6.8" stroke="#7c3aed" stroke-width="1.3" stroke-linecap="round"/><line x1="10" y1="16.5" x2="10" y2="18.2" stroke="#7c3aed" stroke-width="1.3" stroke-linecap="round" stroke-opacity="0.6"/><line x1="14" y1="16.5" x2="14" y2="18.2" stroke="#7c3aed" stroke-width="1.3" stroke-linecap="round" stroke-opacity="0.6"/><line x1="8" y1="11" x2="6.5" y2="11" stroke="#7c3aed" stroke-width="1.3" stroke-linecap="round"/><line x1="8" y1="14" x2="6.5" y2="14" stroke="#7c3aed" stroke-width="1.3" stroke-linecap="round"/><line x1="16" y1="11" x2="17.5" y2="11" stroke="#7c3aed" stroke-width="1.3" stroke-linecap="round"/><line x1="16" y1="14" x2="17.5" y2="14" stroke="#7c3aed" stroke-width="1.3" stroke-linecap="round"/><circle cx="12" cy="12.5" r="1.4" fill="#7c3aed"/><line x1="5" y1="20.5" x2="9" y2="20.5" stroke="#7c3aed" stroke-width="1.4" stroke-linecap="round"/><line x1="15" y1="20.5" x2="19" y2="20.5" stroke="#7c3aed" stroke-width="1.4" stroke-linecap="round"/><circle cx="12" cy="20.5" r="0.9" fill="#7c3aed"/>
  </g>
</svg>
