<svg xmlns="http://www.w3.org/2000/svg" viewBox="0 0 24 24" fill="none" role="img" aria-labelledby="t">
  <title id="t">DP14 — Tt — Trust and Transparency</title>
  <rect x="1.0" y="1.0" width="22" height="22" rx="2.4" fill="#f5e9c8" fill-opacity="0.04" stroke="#b8860b" stroke-width="0.18"/>
  <path d="M 3 18 L 7 18 L 9 14 L 11 14" fill="none" stroke="#ef4444" stroke-width="2.2" stroke-linejoin="round" stroke-linecap="round"/><path d="M 21 18 L 17 18 L 15 14 L 13 14" fill="none" stroke="#ef4444" stroke-width="2.2" stroke-linejoin="round" stroke-linecap="round"/><path d="M 7 14 Q 7 11 10 11 L 12 11 Q 13 11 13 12 L 13 14 Q 13 15 12 15 L 10 15 Q 8 15 8 14 Z" fill="none" stroke="#ef4444" stroke-width="2.2" stroke-linejoin="round"/><path d="M 17 14 Q 17 11 14 11 L 12 11 Q 11 11 11 12 L 11 14 Q 11 15 12 15 L 14 15 Q 16 15 16 14 Z" fill="none" stroke="#ef4444" stroke-width="2.2" stroke-linejoin="round"/><path d="M 11 11 L 12 9 L 13 11" fill="none" stroke="#ef4444" stroke-width="2.2" stroke-opacity="1.0" stroke-linejoin="round" stroke-linecap="round"/>
</svg>
