<svg xmlns="http://www.w3.org/2000/svg" viewBox="0 0 24 24" fill="none" stroke="#1f2937" stroke-width="2" stroke-linecap="round" stroke-linejoin="round" role="img" aria-labelledby="t">
  <title id="t">DP19 — Amplifying Presence and Community Engagement</title>
  <path d="M 4.5 1.5 L 19.5 1.5 L 22.5 4.5 L 22.5 19.5 Q 22.5 22.5 19.5 22.5 L 4.5 22.5 Q 1.5 22.5 1.5 19.5 L 1.5 4.5 Q 1.5 1.5 4.5 1.5 Z" fill="#f5e9c8" fill-opacity="0.06" stroke="#b8860b" stroke-width="1"/>
  <circle cx="20" cy="20" r="1.4" fill="#0f766e" stroke="none"/>
  <path d="M12 9 L15.5 14 L8.5 14 Z" stroke="currentColor" fill="none"/><path d="M12 9 A4 4 0 0 1 15.5 14" stroke="#0f766e" fill="none"/><path d="M15.5 14 A4 4 0 0 1 8.5 14" stroke="#0f766e" fill="none"/><path d="M8.5 14 A4 4 0 0 1 12 9" stroke="#0f766e" fill="none"/><path d="M19 5 A3 3 0 0 1 19 19" stroke="#0f766e" fill="none" stroke-opacity="0.6"/><path d="M5 5 A3 3 0 0 0 5 19" stroke="#0f766e" fill="none" stroke-opacity="0.6"/>
</svg>
