<svg xmlns="http://www.w3.org/2000/svg" viewBox="0 0 24 24" fill="none" stroke="#1f2937" stroke-width="2" stroke-linecap="round" stroke-linejoin="round" role="img" aria-labelledby="t">
  <title id="t">DP20 — Community Ownership</title>
  <path d="M 4.5 1.5 L 19.5 1.5 L 22.5 4.5 L 22.5 19.5 Q 22.5 22.5 19.5 22.5 L 4.5 22.5 Q 1.5 22.5 1.5 19.5 L 1.5 4.5 Q 1.5 1.5 4.5 1.5 Z" fill="#f5e9c8" fill-opacity="0.06" stroke="#b8860b" stroke-width="1"/>
  <circle cx="20" cy="20" r="1.4" fill="#0f766e" stroke="none"/>
  <rect x="3" y="3" width="5" height="5" rx="0.5" stroke="currentColor" fill="none"/><rect x="16" y="3" width="5" height="5" rx="0.5" stroke="currentColor" fill="none"/><rect x="3" y="16" width="5" height="5" rx="0.5" stroke="currentColor" fill="none"/><rect x="16" y="16" width="5" height="5" rx="0.5" stroke="currentColor" fill="none"/><circle cx="12" cy="12" r="2.5" stroke="#0f766e" fill="none"/><path d="M8 5.5 Q10 9 10 10" stroke="#0f766e" fill="none"/><path d="M16 5.5 Q14 9 14 10" stroke="#0f766e" fill="none"/><path d="M5.5 16 Q9 14 10 14" stroke="#0f766e" fill="none"/><path d="M18.5 16 Q15 14 14 14" stroke="#0f766e" fill="none"/>
</svg>
