<svg xmlns="http://www.w3.org/2000/svg" viewBox="0 0 24 24" fill="none" role="img" aria-labelledby="t">
  <title id="t">DP20 — Ow — Community Ownership</title>
  <rect x="1.0" y="1.0" width="22" height="22" rx="2.4" fill="#f5e9c8" fill-opacity="0.04" stroke="#b8860b" stroke-width="0.18"/>
  <circle cx="12" cy="12" r="5.5" fill="none" stroke="#f59e0b" stroke-width="2.2" stroke-opacity="1.0"/><path d="M 6.5 12 L 17.5 12" fill="none" stroke="#f59e0b" stroke-width="1.4" stroke-opacity="0.6" stroke-linejoin="round" stroke-linecap="round"/><path d="M 12 6.5 Q 8 12 12 17.5" fill="none" stroke="#f59e0b" stroke-width="1.4" stroke-opacity="0.6" stroke-linejoin="round" stroke-linecap="round"/><path d="M 12 6.5 Q 16 12 12 17.5" fill="none" stroke="#f59e0b" stroke-width="1.4" stroke-opacity="0.6" stroke-linejoin="round" stroke-linecap="round"/><circle cx="3" cy="4" r="1.1" fill="#f59e0b" stroke="none" stroke-width="2.2" stroke-opacity="1.0"/><path d="M 1.5 8 Q 3 7 4.5 8" fill="none" stroke="#f59e0b" stroke-width="1.4" stroke-opacity="1.0" stroke-linejoin="round" stroke-linecap="round"/><circle cx="21" cy="4" r="1.1" fill="#f59e0b" stroke="none" stroke-width="2.2" stroke-opacity="1.0"/><path d="M 19.5 8 Q 21 7 22.5 8" fill="none" stroke="#f59e0b" stroke-width="1.4" stroke-opacity="1.0" stroke-linejoin="round" stroke-linecap="round"/><circle cx="3" cy="20" r="1.1" fill="#f59e0b" stroke="none" stroke-width="2.2" stroke-opacity="1.0"/><path d="M 1.5 22 Q 3 23 4.5 22" fill="none" stroke="#f59e0b" stroke-width="1.4" stroke-opacity="1.0" stroke-linejoin="round" stroke-linecap="round"/><circle cx="21" cy="20" r="1.1" fill="#f59e0b" stroke="none" stroke-width="2.2" stroke-opacity="1.0"/><path d="M 19.5 22 Q 21 23 22.5 22" fill="none" stroke="#f59e0b" stroke-width="1.4" stroke-opacity="1.0" stroke-linejoin="round" stroke-linecap="round"/>
</svg>
