<svg xmlns="http://www.w3.org/2000/svg" viewBox="0 0 1200 630" width="1200" height="630" role="img" aria-labelledby="t">
  <title id="t">DP01 – Federated Authentication &amp; Accountability</title>
  <rect width="1200" height="630" fill="#0a0e1a"/>
  <circle cx="466.1" cy="52.8" r="1.01" fill="#ffffff" fill-opacity="0.5"/>
  <circle cx="331.1" cy="231.3" r="0.53" fill="#a0c8ff" fill-opacity="0.45"/>
  <circle cx="383.5" cy="244.5" r="0.86" fill="#ffffff" fill-opacity="0.41"/>
  <circle cx="37.2" cy="551.6" r="1.0" fill="#a0c8ff" fill-opacity="0.37"/>
  <circle cx="387.2" cy="432.8" r="0.55" fill="#a0c8ff" fill-opacity="0.38"/>
  <circle cx="538.8" cy="30.6" r="1.1" fill="#e8b923" fill-opacity="0.42"/>
  <circle cx="404.7" cy="75.8" r="1.11" fill="#ffffff" fill-opacity="0.35"/>
  <circle cx="324.1" cy="463.5" r="0.47" fill="#e8b923" fill-opacity="0.32"/>
  <circle cx="39.9" cy="509.1" r="0.89" fill="#a0c8ff" fill-opacity="0.2"/>
  <circle cx="484.8" cy="208.9" r="1.08" fill="#ffffff" fill-opacity="0.47"/>
  <circle cx="321.7" cy="573.5" r="0.57" fill="#e8b923" fill-opacity="0.21"/>
  <circle cx="262.9" cy="486.0" r="1.19" fill="#a0c8ff" fill-opacity="0.44"/>
  <circle cx="503.4" cy="43.1" r="0.47" fill="#e8b923" fill-opacity="0.38"/>
  <circle cx="282.9" cy="428.0" r="1.0" fill="#a0c8ff" fill-opacity="0.36"/>
  <circle cx="91.9" cy="87.9" r="0.78" fill="#e8b923" fill-opacity="0.43"/>
  <circle cx="164.8" cy="577.1" r="1.08" fill="#ffffff" fill-opacity="0.21"/>
  <circle cx="291.7" cy="485.6" r="0.82" fill="#ffffff" fill-opacity="0.33"/>
  <circle cx="362.2" cy="316.0" r="0.78" fill="#e8b923" fill-opacity="0.47"/>
  <rect x="6" y="6" width="1188" height="618" rx="10" fill="none" stroke="#b8860b" stroke-width="4"/>
  <g transform="translate(70 15)">
    <rect x="6" y="6" width="588" height="588" rx="10" fill="none" stroke="#06b6d4" stroke-width="3" stroke-opacity="0.85"/>
    <text x="40" y="98" font-family="'Inter','SF Pro Display','Segoe UI','Liberation Sans','DejaVu Sans',system-ui,sans-serif" font-size="62" font-weight="800" fill="#facc15" letter-spacing="-1.5">DP01</text>
    <text x="42" y="146" font-family="'Inter','SF Pro Display','Segoe UI','Liberation Sans','DejaVu Sans',system-ui,sans-serif" font-size="40" font-weight="700" fill="#06b6d4" letter-spacing="6">Au</text>
    <text x="588" y="62" font-family="'Inter','SF Pro Display','Segoe UI','Liberation Sans','DejaVu Sans',system-ui,sans-serif" font-size="12" font-weight="700" fill="#06b6d4" letter-spacing="3" text-anchor="end">AUTHENTICATION, AGENCY</text>
    <line x1="500" y1="74" x2="588" y2="74" stroke="#06b6d4" stroke-width="1.2" stroke-opacity="0.7"/>
    <svg x="170" y="170" width="260" height="260" viewBox="0 0 24 24" fill="none" stroke="#06b6d4">
      <path d="M5 12 Q5 4 12 4 Q19 4 19 12 Q19 17 16 19" stroke="#06b6d4" fill="none" stroke-width="2" stroke-linecap="round"/><path d="M7.5 12 Q7.5 5.5 12 5.5 Q16.5 5.5 16.5 12 Q16.5 15 15 17" stroke="#06b6d4" fill="none" stroke-width="1.6" stroke-linecap="round" stroke-opacity="0.85"/><path d="M10 12 Q10 7 12 7 Q14 7 14 12 Q14 14 13 15.5" stroke="#06b6d4" fill="none" stroke-width="1.4" stroke-linecap="round" stroke-opacity="0.7"/><path d="M5 12 Q5 19 11 21" stroke="#06b6d4" fill="none" stroke-width="2" stroke-linecap="round"/><path d="M9 20 Q11.5 21.5 14.5 21.5" stroke="#06b6d4" fill="none" stroke-width="1.6" stroke-linecap="round" stroke-opacity="0.85"/><circle cx="12" cy="13" r="1.6" fill="#06b6d4"/>
    </svg>
    <text x="300" y="510" font-family="'Inter','SF Pro Display','Segoe UI','Liberation Sans','DejaVu Sans',system-ui,sans-serif" font-size="26" font-weight="700" fill="#ffffff" text-anchor="middle">Federated Auth</text>
    <line x1="200" y1="544" x2="400" y2="544" stroke="#06b6d4" stroke-width="1" stroke-opacity="0.45"/>
    <text x="300" y="572" font-family="'Inter','SF Pro Display','Segoe UI','Liberation Sans','DejaVu Sans',system-ui,sans-serif" font-size="11" font-weight="700" fill="#06b6d4" letter-spacing="3" text-anchor="middle">AUTHENTICATION, AGENCY</text>
  </g>
  <rect x="690" y="6" width="504" height="618" fill="#06b6d4" fill-opacity="0.07"/>
  <line x1="690" y1="6" x2="690" y2="624" stroke="#06b6d4" stroke-width="2" stroke-opacity="0.6"/>
  <text x="720" y="120" font-family="'Inter','SF Pro Display','Segoe UI','Liberation Sans','DejaVu Sans',system-ui,sans-serif" font-size="32" font-weight="800" fill="#facc15" letter-spacing="2">DP01</text>
  <text x="720" y="170" font-family="'Inter','SF Pro Display','Segoe UI','Liberation Sans','DejaVu Sans',system-ui,sans-serif" font-size="32" font-weight="700" fill="#06b6d4" letter-spacing="6">Au</text>
  <text x="640" y="240" font-family=''Inter','SF Pro Display','Segoe UI','Liberation Sans','DejaVu Sans',system-ui,sans-serif' font-size="56" font-weight="700" fill="#ffffff">Federated Auth</text>
  <text x="720" y="500" font-family="'Inter','SF Pro Display','Segoe UI','Liberation Sans','DejaVu Sans',system-ui,sans-serif" font-size="14" font-weight="700" fill="#06b6d4" letter-spacing="3">AUTHENTICATION, AGENCY</text>
  <text x="720" y="555" font-family="'Inter','SF Pro Display','Segoe UI','Liberation Sans','DejaVu Sans',system-ui,sans-serif" font-size="14" font-weight="500" fill="#a0a0a8">Desirable Properties – Meta-Layer</text>
  <circle cx="32" cy="598" r="5" fill="#facc15"/>
  <circle cx="1168" cy="598" r="5" fill="#06b6d4"/>
</svg>
