<svg xmlns="http://www.w3.org/2000/svg" viewBox="0 0 1200 630" width="1200" height="630" role="img" aria-labelledby="t">
  <title id="t">DP03 — Adaptive Governance</title>
  <rect width="1200" height="630" fill="#0a0e1a"/>
  <circle cx="298.5" cy="221.6" r="0.98" fill="#e8b923" fill-opacity="0.36"/>
  <circle cx="246.3" cy="405.9" r="0.45" fill="#a0c8ff" fill-opacity="0.38"/>
  <circle cx="69.2" cy="185.3" r="0.67" fill="#a0c8ff" fill-opacity="0.52"/>
  <circle cx="395.4" cy="408.4" r="0.91" fill="#a0c8ff" fill-opacity="0.44"/>
  <circle cx="54.3" cy="148.4" r="0.85" fill="#e8b923" fill-opacity="0.2"/>
  <circle cx="212.0" cy="322.8" r="0.96" fill="#ffffff" fill-opacity="0.47"/>
  <circle cx="170.0" cy="530.4" r="1.08" fill="#e8b923" fill-opacity="0.29"/>
  <circle cx="534.6" cy="131.2" r="0.61" fill="#ffffff" fill-opacity="0.49"/>
  <circle cx="442.5" cy="94.4" r="0.51" fill="#e8b923" fill-opacity="0.46"/>
  <circle cx="121.5" cy="500.6" r="0.56" fill="#a0c8ff" fill-opacity="0.32"/>
  <circle cx="224.3" cy="327.7" r="1.08" fill="#ffffff" fill-opacity="0.34"/>
  <circle cx="53.3" cy="261.1" r="0.8" fill="#ffffff" fill-opacity="0.38"/>
  <circle cx="272.8" cy="258.2" r="0.9" fill="#a0c8ff" fill-opacity="0.54"/>
  <circle cx="409.1" cy="241.7" r="0.86" fill="#ffffff" fill-opacity="0.24"/>
  <circle cx="425.3" cy="306.8" r="0.41" fill="#a0c8ff" fill-opacity="0.32"/>
  <circle cx="107.9" cy="235.1" r="0.72" fill="#a0c8ff" fill-opacity="0.45"/>
  <circle cx="416.5" cy="24.2" r="1.04" fill="#e8b923" fill-opacity="0.4"/>
  <circle cx="403.6" cy="264.1" r="0.73" fill="#ffffff" fill-opacity="0.27"/>
  <rect x="6" y="6" width="1188" height="618" rx="10" fill="none" stroke="#b8860b" stroke-width="4"/>
  <g transform="translate(70 15)">
    <rect x="6" y="6" width="588" height="588" rx="10" fill="none" stroke="#06b6d4" stroke-width="3" stroke-opacity="0.85"/>
    <text x="40" y="98" font-family="'Inter','SF Pro Display','Segoe UI','Liberation Sans','DejaVu Sans',system-ui,sans-serif" font-size="62" font-weight="800" fill="#facc15" letter-spacing="-1.5">DP03</text>
    <text x="42" y="146" font-family="'Inter','SF Pro Display','Segoe UI','Liberation Sans','DejaVu Sans',system-ui,sans-serif" font-size="40" font-weight="700" fill="#06b6d4" letter-spacing="6">Go</text>
    <text x="588" y="62" font-family="'Inter','SF Pro Display','Segoe UI','Liberation Sans','DejaVu Sans',system-ui,sans-serif" font-size="12" font-weight="700" fill="#06b6d4" letter-spacing="3" text-anchor="end">AUTHENTICATION, AGENCY</text>
    <line x1="500" y1="74" x2="588" y2="74" stroke="#06b6d4" stroke-width="1.2" stroke-opacity="0.7"/>
    <svg x="170" y="170" width="260" height="260" viewBox="0 0 24 24" fill="none" stroke="#06b6d4">
      <line x1="20.50" y1="12.00" x2="23.00" y2="12.00" stroke="#06b6d4" stroke-width="3.2" stroke-linecap="round"/><line x1="18.01" y1="18.01" x2="19.78" y2="19.78" stroke="#06b6d4" stroke-width="3.2" stroke-linecap="round"/><line x1="12.00" y1="20.50" x2="12.00" y2="23.00" stroke="#06b6d4" stroke-width="3.2" stroke-linecap="round"/><line x1="5.99" y1="18.01" x2="4.22" y2="19.78" stroke="#06b6d4" stroke-width="3.2" stroke-linecap="round"/><line x1="3.50" y1="12.00" x2="1.00" y2="12.00" stroke="#06b6d4" stroke-width="3.2" stroke-linecap="round"/><line x1="5.99" y1="5.99" x2="4.22" y2="4.22" stroke="#06b6d4" stroke-width="3.2" stroke-linecap="round"/><line x1="12.00" y1="3.50" x2="12.00" y2="1.00" stroke="#06b6d4" stroke-width="3.2" stroke-linecap="round"/><line x1="18.01" y1="5.99" x2="19.78" y2="4.22" stroke="#06b6d4" stroke-width="3.2" stroke-linecap="round"/><circle cx="12" cy="12" r="7.5" stroke="#06b6d4" stroke-width="2.2" fill="none"/><circle cx="12" cy="12" r="5" stroke="#06b6d4" stroke-width="1.4" fill="none" stroke-opacity="0.75"/><circle cx="12" cy="12" r="2.8" fill="#06b6d4"/><path d="M12 9.5 L12 14.5 M10.5 12.5 L12 14.5 L13.5 12.5" stroke="#ffffff" stroke-width="1.5" stroke-linecap="round" stroke-linejoin="round" fill="none"/>
    </svg>
    <text x="300" y="510" font-family="'Inter','SF Pro Display','Segoe UI','Liberation Sans','DejaVu Sans',system-ui,sans-serif" font-size="26" font-weight="700" fill="#ffffff" text-anchor="middle">Adaptive Governance</text>
    <line x1="200" y1="544" x2="400" y2="544" stroke="#06b6d4" stroke-width="1" stroke-opacity="0.45"/>
    <text x="300" y="572" font-family="'Inter','SF Pro Display','Segoe UI','Liberation Sans','DejaVu Sans',system-ui,sans-serif" font-size="11" font-weight="700" fill="#06b6d4" letter-spacing="3" text-anchor="middle">AUTHENTICATION, AGENCY</text>
  </g>
  <rect x="690" y="6" width="504" height="618" fill="#06b6d4" fill-opacity="0.07"/>
  <line x1="690" y1="6" x2="690" y2="624" stroke="#06b6d4" stroke-width="2" stroke-opacity="0.6"/>
  <text x="720" y="120" font-family="'Inter','SF Pro Display','Segoe UI','Liberation Sans','DejaVu Sans',system-ui,sans-serif" font-size="32" font-weight="800" fill="#facc15" letter-spacing="2">DP03</text>
  <text x="720" y="170" font-family="'Inter','SF Pro Display','Segoe UI','Liberation Sans','DejaVu Sans',system-ui,sans-serif" font-size="32" font-weight="700" fill="#06b6d4" letter-spacing="6">Go</text>
  <text x="640" y="240" font-family=''Inter','SF Pro Display','Segoe UI','Liberation Sans','DejaVu Sans',system-ui,sans-serif' font-size="56" font-weight="700" fill="#ffffff">Adaptive Governance</text>
  <text x="720" y="500" font-family="'Inter','SF Pro Display','Segoe UI','Liberation Sans','DejaVu Sans',system-ui,sans-serif" font-size="14" font-weight="700" fill="#06b6d4" letter-spacing="3">AUTHENTICATION, AGENCY</text>
  <text x="720" y="555" font-family="'Inter','SF Pro Display','Segoe UI','Liberation Sans','DejaVu Sans',system-ui,sans-serif" font-size="14" font-weight="500" fill="#a0a0a8">Desirable Properties — Meta-Layer</text>
  <circle cx="32" cy="598" r="5" fill="#facc15"/>
  <circle cx="1168" cy="598" r="5" fill="#06b6d4"/>
</svg>
