<svg xmlns="http://www.w3.org/2000/svg" viewBox="0 0 1200 630" width="1200" height="630" role="img" aria-labelledby="t">
  <title id="t">DP04 — Data Sovereignty &amp; Privacy</title>
  <rect width="1200" height="630" fill="#0a0e1a"/>
  <circle cx="255.8" cy="566.6" r="0.89" fill="#a0c8ff" fill-opacity="0.44"/>
  <circle cx="377.0" cy="452.7" r="1.13" fill="#e8b923" fill-opacity="0.47"/>
  <circle cx="384.3" cy="412.2" r="0.97" fill="#a0c8ff" fill-opacity="0.48"/>
  <circle cx="227.0" cy="303.1" r="0.98" fill="#ffffff" fill-opacity="0.25"/>
  <circle cx="91.5" cy="72.0" r="0.81" fill="#ffffff" fill-opacity="0.35"/>
  <circle cx="86.0" cy="87.7" r="1.17" fill="#e8b923" fill-opacity="0.22"/>
  <circle cx="329.3" cy="158.6" r="0.41" fill="#e8b923" fill-opacity="0.51"/>
  <circle cx="179.7" cy="268.7" r="0.97" fill="#e8b923" fill-opacity="0.27"/>
  <circle cx="473.0" cy="295.0" r="0.97" fill="#ffffff" fill-opacity="0.35"/>
  <circle cx="281.8" cy="116.4" r="0.54" fill="#e8b923" fill-opacity="0.26"/>
  <circle cx="106.1" cy="534.4" r="0.83" fill="#a0c8ff" fill-opacity="0.39"/>
  <circle cx="202.2" cy="194.8" r="0.92" fill="#e8b923" fill-opacity="0.51"/>
  <circle cx="259.4" cy="144.0" r="0.99" fill="#e8b923" fill-opacity="0.54"/>
  <circle cx="335.8" cy="558.2" r="0.78" fill="#a0c8ff" fill-opacity="0.29"/>
  <circle cx="435.6" cy="100.3" r="0.69" fill="#ffffff" fill-opacity="0.37"/>
  <circle cx="77.2" cy="173.7" r="1.1" fill="#e8b923" fill-opacity="0.45"/>
  <circle cx="498.7" cy="489.3" r="0.8" fill="#a0c8ff" fill-opacity="0.32"/>
  <circle cx="452.7" cy="265.2" r="0.69" fill="#ffffff" fill-opacity="0.55"/>
  <rect x="6" y="6" width="1188" height="618" rx="10" fill="none" stroke="#b8860b" stroke-width="4"/>
  <g transform="translate(70 15)">
    <rect x="6" y="6" width="588" height="588" rx="10" fill="none" stroke="#10b981" stroke-width="3" stroke-opacity="0.85"/>
    <text x="40" y="98" font-family="'Inter','SF Pro Display','Segoe UI','Liberation Sans','DejaVu Sans',system-ui,sans-serif" font-size="62" font-weight="800" fill="#facc15" letter-spacing="-1.5">DP04</text>
    <text x="42" y="146" font-family="'Inter','SF Pro Display','Segoe UI','Liberation Sans','DejaVu Sans',system-ui,sans-serif" font-size="40" font-weight="700" fill="#10b981" letter-spacing="6">So</text>
    <text x="588" y="62" font-family="'Inter','SF Pro Display','Segoe UI','Liberation Sans','DejaVu Sans',system-ui,sans-serif" font-size="12" font-weight="700" fill="#10b981" letter-spacing="3" text-anchor="end">SOVEREIGNTY &amp; PRIVACY</text>
    <line x1="500" y1="74" x2="588" y2="74" stroke="#10b981" stroke-width="1.2" stroke-opacity="0.7"/>
    <svg x="170" y="170" width="260" height="260" viewBox="0 0 24 24" fill="none" stroke="#10b981">
      <path d="M12 3 L19 6 L19 12 Q19 17 12 21 Q5 17 5 12 L5 6 Z" stroke="#10b981" stroke-width="2.2" fill="none" stroke-linejoin="round"/><circle cx="12" cy="11" r="1.7" fill="#10b981"/><path d="M12 12.3 L11 16 L13 16 Z" fill="#10b981"/><circle cx="8.5" cy="11" r="0.8" fill="#10b981" fill-opacity="0.7"/><circle cx="15.5" cy="11" r="0.8" fill="#10b981" fill-opacity="0.7"/><circle cx="8.5" cy="14" r="0.8" fill="#10b981" fill-opacity="0.5"/><circle cx="15.5" cy="14" r="0.8" fill="#10b981" fill-opacity="0.5"/>
    </svg>
    <text x="300" y="510" font-family="'Inter','SF Pro Display','Segoe UI','Liberation Sans','DejaVu Sans',system-ui,sans-serif" font-size="26" font-weight="700" fill="#ffffff" text-anchor="middle">Data Sovereignty</text>
    <line x1="200" y1="544" x2="400" y2="544" stroke="#10b981" stroke-width="1" stroke-opacity="0.45"/>
    <text x="300" y="572" font-family="'Inter','SF Pro Display','Segoe UI','Liberation Sans','DejaVu Sans',system-ui,sans-serif" font-size="11" font-weight="700" fill="#10b981" letter-spacing="3" text-anchor="middle">SOVEREIGNTY &amp; PRIVACY</text>
  </g>
  <rect x="690" y="6" width="504" height="618" fill="#10b981" fill-opacity="0.07"/>
  <line x1="690" y1="6" x2="690" y2="624" stroke="#10b981" stroke-width="2" stroke-opacity="0.6"/>
  <text x="720" y="120" font-family="'Inter','SF Pro Display','Segoe UI','Liberation Sans','DejaVu Sans',system-ui,sans-serif" font-size="32" font-weight="800" fill="#facc15" letter-spacing="2">DP04</text>
  <text x="720" y="170" font-family="'Inter','SF Pro Display','Segoe UI','Liberation Sans','DejaVu Sans',system-ui,sans-serif" font-size="32" font-weight="700" fill="#10b981" letter-spacing="6">So</text>
  <text x="640" y="240" font-family=''Inter','SF Pro Display','Segoe UI','Liberation Sans','DejaVu Sans',system-ui,sans-serif' font-size="56" font-weight="700" fill="#ffffff">Data Sovereignty</text>
  <text x="720" y="500" font-family="'Inter','SF Pro Display','Segoe UI','Liberation Sans','DejaVu Sans',system-ui,sans-serif" font-size="14" font-weight="700" fill="#10b981" letter-spacing="3">SOVEREIGNTY &amp; PRIVACY</text>
  <text x="720" y="555" font-family="'Inter','SF Pro Display','Segoe UI','Liberation Sans','DejaVu Sans',system-ui,sans-serif" font-size="14" font-weight="500" fill="#a0a0a8">Desirable Properties — Meta-Layer</text>
  <circle cx="32" cy="598" r="5" fill="#facc15"/>
  <circle cx="1168" cy="598" r="5" fill="#10b981"/>
</svg>
