<svg xmlns="http://www.w3.org/2000/svg" viewBox="0 0 1200 630" width="1200" height="630" role="img" aria-labelledby="t">
  <title id="t">DP6 — Commerce</title>
  <!-- background -->
  <rect width="1200" height="630" fill="#ffffff"/>
  <!-- gold border -->
  <rect x="4" y="4" width="1192" height="622" rx="6" fill="none" stroke="#b8860b" stroke-width="4"/>
  <!-- title strip background, family color at 12% -->
  <rect x="600" y="4" width="596" height="622" fill="#1e3a8a" fill-opacity="0.10"/>
  <!-- divider line -->
  <line x1="600" y1="4" x2="600" y2="626" stroke="#1e3a8a" stroke-width="2" stroke-opacity="0.5"/>
  <!-- icon at left half: 480x480 centered -->
  <svg x="60" y="75" width="480" height="480" viewBox="0 0 24 24" fill="none" stroke="#1f2937" stroke-width="2" stroke-linecap="round" stroke-linejoin="round">
    <rect x="1.5" y="1.5" width="21" height="21" rx="3" fill="#f5e9c8" fill-opacity="0.06" stroke="#b8860b" stroke-width="1"/><rect x="3" y="3" width="18" height="18" rx="2" fill="none" stroke="currentColor" stroke-width="0.6" stroke-opacity="0.55"/>
  <circle cx="20" cy="20" r="1.4" fill="#1e3a8a" stroke="none"/>
    <circle cx="6" cy="12" r="2.5" stroke="currentColor" fill="none"/><circle cx="18" cy="12" r="2.5" stroke="currentColor" fill="none"/><path d="M6 12 Q12 5 18 12" stroke="#1e3a8a" fill="none"/><circle cx="9" cy="7" r="0.6" fill="#1e3a8a" stroke="none"/><circle cx="12" cy="5.4" r="0.6" fill="#1e3a8a" stroke="none"/><circle cx="15" cy="7" r="0.6" fill="#1e3a8a" stroke="none"/>
  </svg>
  <!-- DPnn big label, above title -->
  <text x="640" y="120" font-family='Inter, "SF Pro Text", "Segoe UI", system-ui, sans-serif' font-size="32" font-weight="700" fill="#1e3a8a" letter-spacing="3">DP06</text>
  <!-- title text lines -->
  <text x="640" y="220" font-family='Inter, "SF Pro Text", "Segoe UI", system-ui, sans-serif' font-size="64" font-weight="700" fill="#1f1b0e">Commerce</text>
  <!-- caption bottom-left -->
  <text x="32" y="600" font-family='Inter, "SF Pro Text", "Segoe UI", system-ui, sans-serif' font-size="22" font-weight="500" fill="#6b7280" letter-spacing="1.5">DP06 · TRUST</text>
  <!-- family-color corner dot bottom-right -->
  <circle cx="1170" cy="600" r="10" fill="#1e3a8a"/>
</svg>
