<svg xmlns="http://www.w3.org/2000/svg" viewBox="0 0 1200 630" width="1200" height="630" role="img" aria-labelledby="t">
  <title id="t">DP7 — Si — Simplicity and Interoperability</title>
  <!-- white background -->
  <rect width="1200" height="630" fill="#ffffff"/>
  <!-- gold border -->
  <rect x="4" y="4" width="1192" height="622" rx="6" fill="none" stroke="#b8860b" stroke-width="4"/>
  <!-- family-color wash on right strip -->
  <rect x="600" y="4" width="596" height="622" fill="#d946ef" fill-opacity="0.08"/>
  <!-- gold divider line between halves -->
  <line x1="600" y1="4" x2="600" y2="626" stroke="#b8860b" stroke-width="2" stroke-opacity="0.7"/>
  <!-- icon at left half: 480x480 centered -->
  <svg x="60" y="75" width="480" height="480" viewBox="0 0 24 24" fill="none">
    <rect x="1.0" y="1.0" width="22" height="22" rx="2.4" fill="#f5e9c8" fill-opacity="0.04" stroke="#b8860b" stroke-width="0.18"/>
  <path d="M 4.5 6 L 10 6 L 10 8 Q 10 10 12 10 Q 14 10 14 8 L 14 6 L 19.5 6 L 19.5 11 Q 21 11 21 13 Q 21 15 19.5 15 L 19.5 20 L 4.5 20 Z" fill="none" stroke="#d946ef" stroke-width="2.2" stroke-linejoin="round" stroke-linecap="round"/>
  </svg>
  <!-- DPnn, gold -->
  <text x="650" y="110" font-family='Inter, "SF Pro Text", "Segoe UI", system-ui, sans-serif' font-size="36" font-weight="700" fill="#b8860b" letter-spacing="2">DP07</text>
  <!-- 2-letter code, family color, larger -->
  <text x="650" y="180" font-family='Inter, "SF Pro Text", "Segoe UI", system-ui, sans-serif' font-size="64" font-weight="700" fill="#d946ef" letter-spacing="2">Si</text>
  <!-- group label, small caps, gold -->
  <text x="650" y="215" font-family='Inter, "SF Pro Text", "Segoe UI", system-ui, sans-serif' font-size="14" font-weight="600" fill="#b8860b" letter-spacing="3">INTEROPERABILITY &amp; PARTICIPANT EXPERIENCE</text>
  <!-- divider under header -->
  <line x1="650" y1="240" x2="1140" y2="240" stroke="#b8860b" stroke-width="1" stroke-opacity="0.45"/>
  <!-- title text lines -->
  <text x="650" y="292" font-family='Inter, "SF Pro Text", "Segoe UI", system-ui, sans-serif' font-size="46" font-weight="700" fill="#1f1b0e">Simplicity and</text>
  <text x="650" y="348" font-family='Inter, "SF Pro Text", "Segoe UI", system-ui, sans-serif' font-size="46" font-weight="700" fill="#1f1b0e">Interoperability</text>
  <!-- caption bottom-left -->
  <text x="32" y="600" font-family='Inter, "SF Pro Text", "Segoe UI", system-ui, sans-serif' font-size="20" font-weight="500" fill="#6b7280" letter-spacing="1.5">DP07 · Si · INTEROP</text>
  <!-- gold accent dot bottom-right -->
  <circle cx="1170" cy="600" r="10" fill="#b8860b"/>
</svg>
