<svg xmlns="http://www.w3.org/2000/svg" viewBox="0 0 1200 630" width="1200" height="630" role="img" aria-labelledby="t">
  <title id="t">DP07 — Simplicity &amp; Interoperability</title>
  <rect width="1200" height="630" fill="#0a0e1a"/>
  <circle cx="499.3" cy="468.3" r="0.88" fill="#a0c8ff" fill-opacity="0.51"/>
  <circle cx="422.0" cy="119.3" r="0.82" fill="#ffffff" fill-opacity="0.22"/>
  <circle cx="332.5" cy="270.0" r="0.63" fill="#ffffff" fill-opacity="0.52"/>
  <circle cx="39.1" cy="485.6" r="0.59" fill="#ffffff" fill-opacity="0.45"/>
  <circle cx="87.8" cy="533.7" r="0.91" fill="#a0c8ff" fill-opacity="0.51"/>
  <circle cx="382.6" cy="184.9" r="0.58" fill="#a0c8ff" fill-opacity="0.21"/>
  <circle cx="201.2" cy="156.1" r="0.41" fill="#e8b923" fill-opacity="0.41"/>
  <circle cx="88.0" cy="240.3" r="1.01" fill="#ffffff" fill-opacity="0.29"/>
  <circle cx="230.8" cy="559.8" r="1.13" fill="#ffffff" fill-opacity="0.34"/>
  <circle cx="30.8" cy="528.5" r="0.76" fill="#ffffff" fill-opacity="0.47"/>
  <circle cx="459.1" cy="289.1" r="0.49" fill="#e8b923" fill-opacity="0.22"/>
  <circle cx="229.9" cy="117.1" r="0.52" fill="#a0c8ff" fill-opacity="0.55"/>
  <circle cx="364.9" cy="236.8" r="0.57" fill="#e8b923" fill-opacity="0.51"/>
  <circle cx="505.4" cy="477.2" r="1.04" fill="#ffffff" fill-opacity="0.29"/>
  <circle cx="120.2" cy="361.2" r="0.6" fill="#ffffff" fill-opacity="0.33"/>
  <circle cx="320.2" cy="281.3" r="1.03" fill="#ffffff" fill-opacity="0.31"/>
  <circle cx="347.1" cy="59.9" r="1.15" fill="#ffffff" fill-opacity="0.41"/>
  <circle cx="490.1" cy="31.0" r="0.83" fill="#e8b923" fill-opacity="0.3"/>
  <rect x="6" y="6" width="1188" height="618" rx="10" fill="none" stroke="#b8860b" stroke-width="4"/>
  <g transform="translate(70 15)">
    <rect x="6" y="6" width="588" height="588" rx="10" fill="none" stroke="#d946ef" stroke-width="3" stroke-opacity="0.85"/>
    <text x="40" y="98" font-family="'Inter','SF Pro Display','Segoe UI','Liberation Sans','DejaVu Sans',system-ui,sans-serif" font-size="62" font-weight="800" fill="#facc15" letter-spacing="-1.5">DP07</text>
    <text x="42" y="146" font-family="'Inter','SF Pro Display','Segoe UI','Liberation Sans','DejaVu Sans',system-ui,sans-serif" font-size="40" font-weight="700" fill="#d946ef" letter-spacing="6">Si</text>
    <text x="588" y="62" font-family="'Inter','SF Pro Display','Segoe UI','Liberation Sans','DejaVu Sans',system-ui,sans-serif" font-size="12" font-weight="700" fill="#d946ef" letter-spacing="3" text-anchor="end">INTEROPERABILITY</text>
    <line x1="500" y1="74" x2="588" y2="74" stroke="#d946ef" stroke-width="1.2" stroke-opacity="0.7"/>
    <svg x="170" y="170" width="260" height="260" viewBox="0 0 24 24" fill="none" stroke="#d946ef">
      <path d="M5 5 L11 5 L11 7.5 Q11 9 12.5 9 Q14 9 14 7.5 L14 5 L20 5 L20 11 L17.5 11 Q16 11 16 12.5 Q16 14 17.5 14 L20 14 L20 20 L14 20 L14 17.5 Q14 16 12.5 16 Q11 16 11 17.5 L11 20 L5 20 Z" stroke="#d946ef" stroke-width="2" fill="none" stroke-linejoin="round"/><circle cx="9" cy="9" r="1.1" fill="#d946ef" fill-opacity="0.6"/>
    </svg>
    <text x="300" y="510" font-family="'Inter','SF Pro Display','Segoe UI','Liberation Sans','DejaVu Sans',system-ui,sans-serif" font-size="26" font-weight="700" fill="#ffffff" text-anchor="middle">Simplicity</text>
    <line x1="200" y1="544" x2="400" y2="544" stroke="#d946ef" stroke-width="1" stroke-opacity="0.45"/>
    <text x="300" y="572" font-family="'Inter','SF Pro Display','Segoe UI','Liberation Sans','DejaVu Sans',system-ui,sans-serif" font-size="11" font-weight="700" fill="#d946ef" letter-spacing="3" text-anchor="middle">INTEROPERABILITY</text>
  </g>
  <rect x="690" y="6" width="504" height="618" fill="#d946ef" fill-opacity="0.07"/>
  <line x1="690" y1="6" x2="690" y2="624" stroke="#d946ef" stroke-width="2" stroke-opacity="0.6"/>
  <text x="720" y="120" font-family="'Inter','SF Pro Display','Segoe UI','Liberation Sans','DejaVu Sans',system-ui,sans-serif" font-size="32" font-weight="800" fill="#facc15" letter-spacing="2">DP07</text>
  <text x="720" y="170" font-family="'Inter','SF Pro Display','Segoe UI','Liberation Sans','DejaVu Sans',system-ui,sans-serif" font-size="32" font-weight="700" fill="#d946ef" letter-spacing="6">Si</text>
  <text x="640" y="240" font-family=''Inter','SF Pro Display','Segoe UI','Liberation Sans','DejaVu Sans',system-ui,sans-serif' font-size="56" font-weight="700" fill="#ffffff">Simplicity</text>
  <text x="720" y="500" font-family="'Inter','SF Pro Display','Segoe UI','Liberation Sans','DejaVu Sans',system-ui,sans-serif" font-size="14" font-weight="700" fill="#d946ef" letter-spacing="3">INTEROPERABILITY</text>
  <text x="720" y="555" font-family="'Inter','SF Pro Display','Segoe UI','Liberation Sans','DejaVu Sans',system-ui,sans-serif" font-size="14" font-weight="500" fill="#a0a0a8">Desirable Properties — Meta-Layer</text>
  <circle cx="32" cy="598" r="5" fill="#facc15"/>
  <circle cx="1168" cy="598" r="5" fill="#d946ef"/>
</svg>
