<svg xmlns="http://www.w3.org/2000/svg" viewBox="0 0 1200 630" width="1200" height="630" role="img" aria-labelledby="t">
  <title id="t">DP10 – Education</title>
  <rect width="1200" height="630" fill="#0a0e1a"/>
  <circle cx="395.8" cy="499.7" r="0.6" fill="#e8b923" fill-opacity="0.23"/>
  <circle cx="250.8" cy="99.8" r="1.1" fill="#ffffff" fill-opacity="0.51"/>
  <circle cx="487.0" cy="305.5" r="0.8" fill="#a0c8ff" fill-opacity="0.55"/>
  <circle cx="408.9" cy="239.5" r="0.88" fill="#a0c8ff" fill-opacity="0.45"/>
  <circle cx="62.8" cy="315.4" r="0.84" fill="#a0c8ff" fill-opacity="0.3"/>
  <circle cx="576.1" cy="100.6" r="1.2" fill="#a0c8ff" fill-opacity="0.26"/>
  <circle cx="34.2" cy="572.3" r="0.49" fill="#a0c8ff" fill-opacity="0.47"/>
  <circle cx="538.7" cy="35.7" r="0.83" fill="#a0c8ff" fill-opacity="0.41"/>
  <circle cx="345.6" cy="177.8" r="0.56" fill="#ffffff" fill-opacity="0.51"/>
  <circle cx="400.8" cy="338.6" r="0.59" fill="#ffffff" fill-opacity="0.39"/>
  <circle cx="210.4" cy="199.8" r="0.92" fill="#e8b923" fill-opacity="0.44"/>
  <circle cx="560.9" cy="42.3" r="0.54" fill="#a0c8ff" fill-opacity="0.42"/>
  <circle cx="389.0" cy="267.3" r="0.62" fill="#e8b923" fill-opacity="0.24"/>
  <circle cx="368.1" cy="83.7" r="1.09" fill="#ffffff" fill-opacity="0.54"/>
  <circle cx="521.7" cy="48.1" r="1.15" fill="#e8b923" fill-opacity="0.37"/>
  <circle cx="515.8" cy="216.9" r="0.64" fill="#a0c8ff" fill-opacity="0.55"/>
  <circle cx="20.0" cy="397.2" r="0.47" fill="#a0c8ff" fill-opacity="0.54"/>
  <circle cx="336.0" cy="455.4" r="0.97" fill="#ffffff" fill-opacity="0.28"/>
  <rect x="6" y="6" width="1188" height="618" rx="10" fill="none" stroke="#b8860b" stroke-width="4"/>
  <g transform="translate(70 15)">
    <rect x="6" y="6" width="588" height="588" rx="10" fill="none" stroke="#d946ef" stroke-width="3" stroke-opacity="0.85"/>
    <text x="40" y="98" font-family="'Inter','SF Pro Display','Segoe UI','Liberation Sans','DejaVu Sans',system-ui,sans-serif" font-size="62" font-weight="800" fill="#facc15" letter-spacing="-1.5">DP10</text>
    <text x="42" y="146" font-family="'Inter','SF Pro Display','Segoe UI','Liberation Sans','DejaVu Sans',system-ui,sans-serif" font-size="40" font-weight="700" fill="#d946ef" letter-spacing="6">Ed</text>
    <text x="588" y="62" font-family="'Inter','SF Pro Display','Segoe UI','Liberation Sans','DejaVu Sans',system-ui,sans-serif" font-size="12" font-weight="700" fill="#d946ef" letter-spacing="3" text-anchor="end">INTEROPERABILITY</text>
    <line x1="500" y1="74" x2="588" y2="74" stroke="#d946ef" stroke-width="1.2" stroke-opacity="0.7"/>
    <svg x="170" y="170" width="260" height="260" viewBox="0 0 24 24" fill="none" stroke="#d946ef">
      <circle cx="12" cy="4.5" r="1.7" fill="#d946ef"/><line x1="12" y1="1.5" x2="12" y2="0.5" stroke="#d946ef" stroke-width="1.4" stroke-linecap="round"/><line x1="9.3" y1="2.3" x2="8.5" y2="1.5" stroke="#d946ef" stroke-width="1.4" stroke-linecap="round"/><line x1="14.7" y1="2.3" x2="15.5" y2="1.5" stroke="#d946ef" stroke-width="1.4" stroke-linecap="round"/><line x1="9.3" y1="6.7" x2="8.5" y2="7.5" stroke="#d946ef" stroke-width="1.4" stroke-linecap="round"/><line x1="14.7" y1="6.7" x2="15.5" y2="7.5" stroke="#d946ef" stroke-width="1.4" stroke-linecap="round"/><path d="M4 10 Q8 8 12 10 Q16 8 20 10 L20 19 Q16 17 12 19 Q8 17 4 19 Z" stroke="#d946ef" stroke-width="2" fill="none" stroke-linejoin="round"/><line x1="12" y1="10" x2="12" y2="19" stroke="#d946ef" stroke-width="1.5"/><line x1="6" y1="13" x2="10" y2="12.4" stroke="#d946ef" stroke-width="1" stroke-opacity="0.6"/><line x1="6" y1="15.5" x2="10" y2="14.9" stroke="#d946ef" stroke-width="1" stroke-opacity="0.6"/><line x1="14" y1="12.4" x2="18" y2="13" stroke="#d946ef" stroke-width="1" stroke-opacity="0.6"/><line x1="14" y1="14.9" x2="18" y2="15.5" stroke="#d946ef" stroke-width="1" stroke-opacity="0.6"/>
    </svg>
    <text x="300" y="510" font-family="'Inter','SF Pro Display','Segoe UI','Liberation Sans','DejaVu Sans',system-ui,sans-serif" font-size="26" font-weight="700" fill="#ffffff" text-anchor="middle">Education</text>
    <line x1="200" y1="544" x2="400" y2="544" stroke="#d946ef" stroke-width="1" stroke-opacity="0.45"/>
    <text x="300" y="572" font-family="'Inter','SF Pro Display','Segoe UI','Liberation Sans','DejaVu Sans',system-ui,sans-serif" font-size="11" font-weight="700" fill="#d946ef" letter-spacing="3" text-anchor="middle">INTEROPERABILITY</text>
  </g>
  <rect x="690" y="6" width="504" height="618" fill="#d946ef" fill-opacity="0.07"/>
  <line x1="690" y1="6" x2="690" y2="624" stroke="#d946ef" stroke-width="2" stroke-opacity="0.6"/>
  <text x="720" y="120" font-family="'Inter','SF Pro Display','Segoe UI','Liberation Sans','DejaVu Sans',system-ui,sans-serif" font-size="32" font-weight="800" fill="#facc15" letter-spacing="2">DP10</text>
  <text x="720" y="170" font-family="'Inter','SF Pro Display','Segoe UI','Liberation Sans','DejaVu Sans',system-ui,sans-serif" font-size="32" font-weight="700" fill="#d946ef" letter-spacing="6">Ed</text>
  <text x="640" y="240" font-family=''Inter','SF Pro Display','Segoe UI','Liberation Sans','DejaVu Sans',system-ui,sans-serif' font-size="56" font-weight="700" fill="#ffffff">Education</text>
  <text x="720" y="500" font-family="'Inter','SF Pro Display','Segoe UI','Liberation Sans','DejaVu Sans',system-ui,sans-serif" font-size="14" font-weight="700" fill="#d946ef" letter-spacing="3">INTEROPERABILITY</text>
  <text x="720" y="555" font-family="'Inter','SF Pro Display','Segoe UI','Liberation Sans','DejaVu Sans',system-ui,sans-serif" font-size="14" font-weight="500" fill="#a0a0a8">Desirable Properties – Meta-Layer</text>
  <circle cx="32" cy="598" r="5" fill="#facc15"/>
  <circle cx="1168" cy="598" r="5" fill="#d946ef"/>
</svg>
