<svg xmlns="http://www.w3.org/2000/svg" viewBox="0 0 1200 630" width="1200" height="630" role="img" aria-labelledby="t">
  <title id="t">DP10 — Ed — Education</title>
  <!-- white background -->
  <rect width="1200" height="630" fill="#ffffff"/>
  <!-- gold border -->
  <rect x="4" y="4" width="1192" height="622" rx="6" fill="none" stroke="#b8860b" stroke-width="4"/>
  <!-- family-color wash on right strip -->
  <rect x="600" y="4" width="596" height="622" fill="#d946ef" fill-opacity="0.08"/>
  <!-- gold divider line between halves -->
  <line x1="600" y1="4" x2="600" y2="626" stroke="#b8860b" stroke-width="2" stroke-opacity="0.7"/>
  <!-- icon at left half: 480x480 centered -->
  <svg x="60" y="75" width="480" height="480" viewBox="0 0 24 24" fill="none">
    <rect x="1.0" y="1.0" width="22" height="22" rx="2.4" fill="#f5e9c8" fill-opacity="0.04" stroke="#b8860b" stroke-width="0.18"/>
  <circle cx="12" cy="7" r="2.6" fill="none" stroke="#d946ef" stroke-width="2.2" stroke-opacity="1.0"/><path d="M 10.5 9 L 13.5 9" fill="none" stroke="#d946ef" stroke-width="1.4" stroke-opacity="1.0" stroke-linejoin="round" stroke-linecap="round"/><path d="M 11 10.5 L 13 10.5" fill="none" stroke="#d946ef" stroke-width="1.4" stroke-opacity="1.0" stroke-linejoin="round" stroke-linecap="round"/><path d="M 3 14 Q 7.5 12.5 12 14 Q 16.5 12.5 21 14 L 21 20 Q 16.5 18.5 12 20 Q 7.5 18.5 3 20 Z" fill="none" stroke="#d946ef" stroke-width="2.2" stroke-linejoin="round"/><path d="M 12 14 L 12 20" fill="none" stroke="#d946ef" stroke-width="1.4" stroke-opacity="1.0" stroke-linejoin="round" stroke-linecap="round"/>
  </svg>
  <!-- DPnn, gold -->
  <text x="650" y="110" font-family='Inter, "SF Pro Text", "Segoe UI", system-ui, sans-serif' font-size="36" font-weight="700" fill="#b8860b" letter-spacing="2">DP10</text>
  <!-- 2-letter code, family color, larger -->
  <text x="650" y="180" font-family='Inter, "SF Pro Text", "Segoe UI", system-ui, sans-serif' font-size="64" font-weight="700" fill="#d946ef" letter-spacing="2">Ed</text>
  <!-- group label, small caps, gold -->
  <text x="650" y="215" font-family='Inter, "SF Pro Text", "Segoe UI", system-ui, sans-serif' font-size="14" font-weight="600" fill="#b8860b" letter-spacing="3">INTEROPERABILITY &amp; PARTICIPANT EXPERIENCE</text>
  <!-- divider under header -->
  <line x1="650" y1="240" x2="1140" y2="240" stroke="#b8860b" stroke-width="1" stroke-opacity="0.45"/>
  <!-- title text lines -->
  <text x="650" y="320" font-family='Inter, "SF Pro Text", "Segoe UI", system-ui, sans-serif' font-size="46" font-weight="700" fill="#1f1b0e">Education</text>
  <!-- caption bottom-left -->
  <text x="32" y="600" font-family='Inter, "SF Pro Text", "Segoe UI", system-ui, sans-serif' font-size="20" font-weight="500" fill="#6b7280" letter-spacing="1.5">DP10 · Ed · INTEROP</text>
  <!-- gold accent dot bottom-right -->
  <circle cx="1170" cy="600" r="10" fill="#b8860b"/>
</svg>
