<svg xmlns="http://www.w3.org/2000/svg" viewBox="0 0 1200 630" width="1200" height="630" role="img" aria-labelledby="t">
  <title id="t">DP13 — AI Containment</title>
  <rect width="1200" height="630" fill="#0a0e1a"/>
  <circle cx="527.1" cy="448.7" r="0.95" fill="#a0c8ff" fill-opacity="0.45"/>
  <circle cx="122.8" cy="335.9" r="0.71" fill="#e8b923" fill-opacity="0.52"/>
  <circle cx="157.7" cy="164.9" r="0.91" fill="#e8b923" fill-opacity="0.23"/>
  <circle cx="383.1" cy="59.1" r="0.6" fill="#a0c8ff" fill-opacity="0.46"/>
  <circle cx="110.5" cy="554.6" r="0.66" fill="#a0c8ff" fill-opacity="0.53"/>
  <circle cx="457.8" cy="88.5" r="0.52" fill="#ffffff" fill-opacity="0.24"/>
  <circle cx="539.6" cy="289.7" r="0.97" fill="#a0c8ff" fill-opacity="0.22"/>
  <circle cx="377.0" cy="185.0" r="0.63" fill="#ffffff" fill-opacity="0.27"/>
  <circle cx="178.3" cy="394.2" r="0.8" fill="#e8b923" fill-opacity="0.37"/>
  <circle cx="476.8" cy="56.4" r="0.61" fill="#e8b923" fill-opacity="0.34"/>
  <circle cx="263.6" cy="380.6" r="0.64" fill="#ffffff" fill-opacity="0.31"/>
  <circle cx="433.9" cy="37.3" r="0.84" fill="#e8b923" fill-opacity="0.35"/>
  <circle cx="318.4" cy="407.7" r="0.88" fill="#e8b923" fill-opacity="0.39"/>
  <circle cx="539.9" cy="183.0" r="0.57" fill="#e8b923" fill-opacity="0.46"/>
  <circle cx="573.6" cy="540.3" r="0.96" fill="#a0c8ff" fill-opacity="0.53"/>
  <circle cx="493.6" cy="171.3" r="1.11" fill="#ffffff" fill-opacity="0.44"/>
  <circle cx="142.8" cy="263.1" r="0.53" fill="#e8b923" fill-opacity="0.4"/>
  <circle cx="542.2" cy="559.6" r="1.18" fill="#ffffff" fill-opacity="0.46"/>
  <rect x="6" y="6" width="1188" height="618" rx="10" fill="none" stroke="#b8860b" stroke-width="4"/>
  <g transform="translate(70 15)">
    <rect x="6" y="6" width="588" height="588" rx="10" fill="none" stroke="#7c3aed" stroke-width="3" stroke-opacity="0.85"/>
    <text x="40" y="98" font-family="'Inter','SF Pro Display','Segoe UI','Liberation Sans','DejaVu Sans',system-ui,sans-serif" font-size="62" font-weight="800" fill="#facc15" letter-spacing="-1.5">DP13</text>
    <text x="42" y="146" font-family="'Inter','SF Pro Display','Segoe UI','Liberation Sans','DejaVu Sans',system-ui,sans-serif" font-size="40" font-weight="700" fill="#7c3aed" letter-spacing="6">Ac</text>
    <text x="588" y="62" font-family="'Inter','SF Pro Display','Segoe UI','Liberation Sans','DejaVu Sans',system-ui,sans-serif" font-size="12" font-weight="700" fill="#7c3aed" letter-spacing="3" text-anchor="end">AI GOVERNANCE</text>
    <line x1="500" y1="74" x2="588" y2="74" stroke="#7c3aed" stroke-width="1.2" stroke-opacity="0.7"/>
    <svg x="170" y="170" width="260" height="260" viewBox="0 0 24 24" fill="none" stroke="#7c3aed">
      <path d="M3.5 17 Q3.5 4.5 12 4.5 Q20.5 4.5 20.5 17" stroke="#7c3aed" stroke-width="2.4" fill="none" stroke-linecap="round"/><line x1="2.5" y1="17" x2="21.5" y2="17" stroke="#7c3aed" stroke-width="2.4" stroke-linecap="round"/><rect x="8" y="8.5" width="8" height="8" rx="1" stroke="#7c3aed" stroke-width="1.8" fill="none"/><line x1="10" y1="8.5" x2="10" y2="6.8" stroke="#7c3aed" stroke-width="1.3" stroke-linecap="round"/><line x1="14" y1="8.5" x2="14" y2="6.8" stroke="#7c3aed" stroke-width="1.3" stroke-linecap="round"/><line x1="10" y1="16.5" x2="10" y2="18.2" stroke="#7c3aed" stroke-width="1.3" stroke-linecap="round" stroke-opacity="0.6"/><line x1="14" y1="16.5" x2="14" y2="18.2" stroke="#7c3aed" stroke-width="1.3" stroke-linecap="round" stroke-opacity="0.6"/><line x1="8" y1="11" x2="6.5" y2="11" stroke="#7c3aed" stroke-width="1.3" stroke-linecap="round"/><line x1="8" y1="14" x2="6.5" y2="14" stroke="#7c3aed" stroke-width="1.3" stroke-linecap="round"/><line x1="16" y1="11" x2="17.5" y2="11" stroke="#7c3aed" stroke-width="1.3" stroke-linecap="round"/><line x1="16" y1="14" x2="17.5" y2="14" stroke="#7c3aed" stroke-width="1.3" stroke-linecap="round"/><circle cx="12" cy="12.5" r="1.4" fill="#7c3aed"/><line x1="5" y1="20.5" x2="9" y2="20.5" stroke="#7c3aed" stroke-width="1.4" stroke-linecap="round"/><line x1="15" y1="20.5" x2="19" y2="20.5" stroke="#7c3aed" stroke-width="1.4" stroke-linecap="round"/><circle cx="12" cy="20.5" r="0.9" fill="#7c3aed"/>
    </svg>
    <text x="300" y="510" font-family="'Inter','SF Pro Display','Segoe UI','Liberation Sans','DejaVu Sans',system-ui,sans-serif" font-size="26" font-weight="700" fill="#ffffff" text-anchor="middle">AI Containment</text>
    <line x1="200" y1="544" x2="400" y2="544" stroke="#7c3aed" stroke-width="1" stroke-opacity="0.45"/>
    <text x="300" y="572" font-family="'Inter','SF Pro Display','Segoe UI','Liberation Sans','DejaVu Sans',system-ui,sans-serif" font-size="11" font-weight="700" fill="#7c3aed" letter-spacing="3" text-anchor="middle">AI GOVERNANCE</text>
  </g>
  <rect x="690" y="6" width="504" height="618" fill="#7c3aed" fill-opacity="0.07"/>
  <line x1="690" y1="6" x2="690" y2="624" stroke="#7c3aed" stroke-width="2" stroke-opacity="0.6"/>
  <text x="720" y="120" font-family="'Inter','SF Pro Display','Segoe UI','Liberation Sans','DejaVu Sans',system-ui,sans-serif" font-size="32" font-weight="800" fill="#facc15" letter-spacing="2">DP13</text>
  <text x="720" y="170" font-family="'Inter','SF Pro Display','Segoe UI','Liberation Sans','DejaVu Sans',system-ui,sans-serif" font-size="32" font-weight="700" fill="#7c3aed" letter-spacing="6">Ac</text>
  <text x="640" y="240" font-family=''Inter','SF Pro Display','Segoe UI','Liberation Sans','DejaVu Sans',system-ui,sans-serif' font-size="56" font-weight="700" fill="#ffffff">AI Containment</text>
  <text x="720" y="500" font-family="'Inter','SF Pro Display','Segoe UI','Liberation Sans','DejaVu Sans',system-ui,sans-serif" font-size="14" font-weight="700" fill="#7c3aed" letter-spacing="3">AI GOVERNANCE</text>
  <text x="720" y="555" font-family="'Inter','SF Pro Display','Segoe UI','Liberation Sans','DejaVu Sans',system-ui,sans-serif" font-size="14" font-weight="500" fill="#a0a0a8">Desirable Properties — Meta-Layer</text>
  <circle cx="32" cy="598" r="5" fill="#facc15"/>
  <circle cx="1168" cy="598" r="5" fill="#7c3aed"/>
</svg>
