<svg xmlns="http://www.w3.org/2000/svg" viewBox="0 0 1200 630" width="1200" height="630" role="img" aria-labelledby="t">
  <title id="t">DP13 — AI Containment</title>
  <!-- background -->
  <rect width="1200" height="630" fill="#ffffff"/>
  <!-- gold border -->
  <rect x="4" y="4" width="1192" height="622" rx="6" fill="none" stroke="#b8860b" stroke-width="4"/>
  <!-- title strip background, family color at 12% -->
  <rect x="600" y="4" width="596" height="622" fill="#d97706" fill-opacity="0.10"/>
  <!-- divider line -->
  <line x1="600" y1="4" x2="600" y2="626" stroke="#d97706" stroke-width="2" stroke-opacity="0.5"/>
  <!-- icon at left half: 480x480 centered -->
  <svg x="60" y="75" width="480" height="480" viewBox="0 0 24 24" fill="none" stroke="#1f2937" stroke-width="2" stroke-linecap="round" stroke-linejoin="round">
    <rect x="1.5" y="1.5" width="21" height="21" rx="3" fill="#f5e9c8" fill-opacity="0.06" stroke="#b8860b" stroke-width="1.5"/>
  <circle cx="20" cy="20" r="1.4" fill="#d97706" stroke="none"/>
    <rect x="3.5" y="3.5" width="17" height="17" rx="1" stroke="currentColor" fill="none"/><path d="M12 9 L16 16 L8 16 Z" stroke="#d97706" fill="none"/><path d="M3.5 6 A2.5 2.5 0 0 1 6 3.5" stroke="#d97706" fill="none"/><path d="M18 3.5 A2.5 2.5 0 0 1 20.5 6" stroke="#d97706" fill="none"/><path d="M20.5 18 A2.5 2.5 0 0 1 18 20.5" stroke="#d97706" fill="none"/><path d="M6 20.5 A2.5 2.5 0 0 1 3.5 18" stroke="#d97706" fill="none"/>
  </svg>
  <!-- DPnn big label, above title -->
  <text x="640" y="120" font-family='Inter, "SF Pro Text", "Segoe UI", system-ui, sans-serif' font-size="32" font-weight="700" fill="#d97706" letter-spacing="3">DP13</text>
  <!-- title text lines -->
  <text x="640" y="220" font-family='Inter, "SF Pro Text", "Segoe UI", system-ui, sans-serif' font-size="64" font-weight="700" fill="#1f1b0e">AI Containment</text>
  <!-- caption bottom-left -->
  <text x="32" y="600" font-family='Inter, "SF Pro Text", "Segoe UI", system-ui, sans-serif' font-size="22" font-weight="500" fill="#6b7280" letter-spacing="1.5">DP13 · GOVERNANCE</text>
  <!-- family-color corner dot bottom-right -->
  <circle cx="1170" cy="600" r="10" fill="#d97706"/>
</svg>
