<svg xmlns="http://www.w3.org/2000/svg" viewBox="0 0 1200 630" width="1200" height="630" role="img" aria-labelledby="t">
  <title id="t">DP16 — Roadmap and Milestones</title>
  <!-- background -->
  <rect width="1200" height="630" fill="#ffffff"/>
  <!-- gold border -->
  <rect x="4" y="4" width="1192" height="622" rx="6" fill="none" stroke="#b8860b" stroke-width="4"/>
  <!-- title strip background, family color at 12% -->
  <rect x="600" y="4" width="596" height="622" fill="#0f766e" fill-opacity="0.10"/>
  <!-- divider line -->
  <line x1="600" y1="4" x2="600" y2="626" stroke="#0f766e" stroke-width="2" stroke-opacity="0.5"/>
  <!-- icon at left half: 480x480 centered -->
  <svg x="60" y="75" width="480" height="480" viewBox="0 0 24 24" fill="none" stroke="#1f2937" stroke-width="2" stroke-linecap="round" stroke-linejoin="round">
    <path d="M 4.5 1.5 L 19.5 1.5 L 22.5 4.5 L 22.5 19.5 Q 22.5 22.5 19.5 22.5 L 4.5 22.5 Q 1.5 22.5 1.5 19.5 L 1.5 4.5 Q 1.5 1.5 4.5 1.5 Z" fill="#f5e9c8" fill-opacity="0.06" stroke="#b8860b" stroke-width="1"/>
  <circle cx="20" cy="20" r="1.4" fill="#0f766e" stroke="none"/>
    <circle cx="4.5" cy="19" r="1.0" fill="currentColor" stroke="none"/><circle cx="9" cy="14" r="1.0" fill="currentColor" stroke="none"/><circle cx="14" cy="9" r="1.0" fill="#0f766e" stroke="none"/><circle cx="19" cy="4.5" r="1.2" fill="#0f766e" stroke="none"/><path d="M4.5 19 Q11.5 7 19 4.5" stroke="#0f766e" fill="none"/>
  </svg>
  <!-- DPnn big label, above title -->
  <text x="640" y="120" font-family='Inter, "SF Pro Text", "Segoe UI", system-ui, sans-serif' font-size="32" font-weight="700" fill="#0f766e" letter-spacing="3">DP16</text>
  <!-- title text lines -->
  <text x="640" y="220" font-family='Inter, "SF Pro Text", "Segoe UI", system-ui, sans-serif' font-size="64" font-weight="700" fill="#1f1b0e">Roadmap and Milestones</text>
  <!-- caption bottom-left -->
  <text x="32" y="600" font-family='Inter, "SF Pro Text", "Segoe UI", system-ui, sans-serif' font-size="22" font-weight="500" fill="#6b7280" letter-spacing="1.5">DP16 · DATA</text>
  <!-- family-color corner dot bottom-right -->
  <circle cx="1170" cy="600" r="10" fill="#0f766e"/>
</svg>
