<svg xmlns="http://www.w3.org/2000/svg" viewBox="0 0 1200 630" width="1200" height="630" role="img" aria-labelledby="t">
  <title id="t">DP17 – Financial Sustainability</title>
  <rect width="1200" height="630" fill="#0a0e1a"/>
  <circle cx="289.5" cy="375.7" r="0.55" fill="#e8b923" fill-opacity="0.23"/>
  <circle cx="77.0" cy="172.3" r="1.03" fill="#a0c8ff" fill-opacity="0.48"/>
  <circle cx="179.7" cy="287.5" r="1.09" fill="#a0c8ff" fill-opacity="0.42"/>
  <circle cx="288.7" cy="211.0" r="0.84" fill="#ffffff" fill-opacity="0.4"/>
  <circle cx="293.3" cy="61.4" r="0.77" fill="#a0c8ff" fill-opacity="0.36"/>
  <circle cx="530.0" cy="85.8" r="0.75" fill="#a0c8ff" fill-opacity="0.3"/>
  <circle cx="102.1" cy="243.3" r="0.71" fill="#a0c8ff" fill-opacity="0.24"/>
  <circle cx="457.0" cy="193.6" r="0.42" fill="#ffffff" fill-opacity="0.4"/>
  <circle cx="345.5" cy="574.5" r="0.49" fill="#e8b923" fill-opacity="0.31"/>
  <circle cx="247.0" cy="539.1" r="0.48" fill="#e8b923" fill-opacity="0.24"/>
  <circle cx="307.4" cy="297.3" r="0.82" fill="#ffffff" fill-opacity="0.54"/>
  <circle cx="520.8" cy="417.4" r="0.99" fill="#e8b923" fill-opacity="0.31"/>
  <circle cx="416.5" cy="358.9" r="0.91" fill="#e8b923" fill-opacity="0.32"/>
  <circle cx="375.1" cy="381.0" r="0.68" fill="#ffffff" fill-opacity="0.5"/>
  <circle cx="351.4" cy="472.8" r="0.52" fill="#a0c8ff" fill-opacity="0.51"/>
  <circle cx="398.8" cy="382.3" r="0.66" fill="#a0c8ff" fill-opacity="0.33"/>
  <circle cx="470.4" cy="330.0" r="0.77" fill="#e8b923" fill-opacity="0.46"/>
  <circle cx="494.1" cy="529.1" r="0.45" fill="#ffffff" fill-opacity="0.5"/>
  <rect x="6" y="6" width="1188" height="618" rx="10" fill="none" stroke="#b8860b" stroke-width="4"/>
  <g transform="translate(70 15)">
    <rect x="6" y="6" width="588" height="588" rx="10" fill="none" stroke="#ef4444" stroke-width="3" stroke-opacity="0.85"/>
    <text x="40" y="98" font-family="'Inter','SF Pro Display','Segoe UI','Liberation Sans','DejaVu Sans',system-ui,sans-serif" font-size="62" font-weight="800" fill="#facc15" letter-spacing="-1.5">DP17</text>
    <text x="42" y="146" font-family="'Inter','SF Pro Display','Segoe UI','Liberation Sans','DejaVu Sans',system-ui,sans-serif" font-size="40" font-weight="700" fill="#ef4444" letter-spacing="6">Fs</text>
    <text x="588" y="62" font-family="'Inter','SF Pro Display','Segoe UI','Liberation Sans','DejaVu Sans',system-ui,sans-serif" font-size="12" font-weight="700" fill="#ef4444" letter-spacing="3" text-anchor="end">SECURITY, TRUST</text>
    <line x1="500" y1="74" x2="588" y2="74" stroke="#ef4444" stroke-width="1.2" stroke-opacity="0.7"/>
    <svg x="170" y="170" width="260" height="260" viewBox="0 0 24 24" fill="none" stroke="#ef4444">
      <circle cx="12" cy="14" r="6.5" fill="#ef4444"/><circle cx="12" cy="14" r="6.5" stroke="#ef4444" stroke-width="2" fill="none"/><path d="M9 13 Q9 11 10.5 11 Q12 11 12 13 Q12 15 13.5 15 Q15 15 15 13" stroke="#0a0e1a" stroke-width="1.6" fill="none" stroke-linecap="round"/><path d="M12 7.5 L12 4" stroke="#ef4444" stroke-width="1.8" stroke-linecap="round"/><path d="M12 5.5 Q9.5 5 9 3.5 Q11 3.5 12 5.5" fill="#ef4444"/><path d="M12 4.5 Q14.5 4 15 2.5 Q13 2.5 12 4.5" fill="#ef4444"/>
    </svg>
    <text x="300" y="510" font-family="'Inter','SF Pro Display','Segoe UI','Liberation Sans','DejaVu Sans',system-ui,sans-serif" font-size="26" font-weight="700" fill="#ffffff" text-anchor="middle">Sustainability</text>
    <line x1="200" y1="544" x2="400" y2="544" stroke="#ef4444" stroke-width="1" stroke-opacity="0.45"/>
    <text x="300" y="572" font-family="'Inter','SF Pro Display','Segoe UI','Liberation Sans','DejaVu Sans',system-ui,sans-serif" font-size="11" font-weight="700" fill="#ef4444" letter-spacing="3" text-anchor="middle">SECURITY, TRUST</text>
  </g>
  <rect x="690" y="6" width="504" height="618" fill="#ef4444" fill-opacity="0.07"/>
  <line x1="690" y1="6" x2="690" y2="624" stroke="#ef4444" stroke-width="2" stroke-opacity="0.6"/>
  <text x="720" y="120" font-family="'Inter','SF Pro Display','Segoe UI','Liberation Sans','DejaVu Sans',system-ui,sans-serif" font-size="32" font-weight="800" fill="#facc15" letter-spacing="2">DP17</text>
  <text x="720" y="170" font-family="'Inter','SF Pro Display','Segoe UI','Liberation Sans','DejaVu Sans',system-ui,sans-serif" font-size="32" font-weight="700" fill="#ef4444" letter-spacing="6">Fs</text>
  <text x="640" y="240" font-family=''Inter','SF Pro Display','Segoe UI','Liberation Sans','DejaVu Sans',system-ui,sans-serif' font-size="56" font-weight="700" fill="#ffffff">Sustainability</text>
  <text x="720" y="500" font-family="'Inter','SF Pro Display','Segoe UI','Liberation Sans','DejaVu Sans',system-ui,sans-serif" font-size="14" font-weight="700" fill="#ef4444" letter-spacing="3">SECURITY, TRUST</text>
  <text x="720" y="555" font-family="'Inter','SF Pro Display','Segoe UI','Liberation Sans','DejaVu Sans',system-ui,sans-serif" font-size="14" font-weight="500" fill="#a0a0a8">Desirable Properties – Meta-Layer</text>
  <circle cx="32" cy="598" r="5" fill="#facc15"/>
  <circle cx="1168" cy="598" r="5" fill="#ef4444"/>
</svg>
