<svg xmlns="http://www.w3.org/2000/svg" viewBox="0 0 1200 630" width="1200" height="630" role="img" aria-labelledby="t">
  <title id="t">DP19 — Amplifying Presence</title>
  <rect width="1200" height="630" fill="#0a0e1a"/>
  <circle cx="39.2" cy="139.9" r="1.02" fill="#a0c8ff" fill-opacity="0.36"/>
  <circle cx="575.7" cy="147.8" r="1.03" fill="#e8b923" fill-opacity="0.3"/>
  <circle cx="236.7" cy="165.4" r="0.61" fill="#e8b923" fill-opacity="0.47"/>
  <circle cx="249.0" cy="123.5" r="0.76" fill="#a0c8ff" fill-opacity="0.48"/>
  <circle cx="536.7" cy="44.6" r="0.5" fill="#ffffff" fill-opacity="0.25"/>
  <circle cx="471.2" cy="398.9" r="0.73" fill="#a0c8ff" fill-opacity="0.26"/>
  <circle cx="515.7" cy="77.1" r="0.63" fill="#e8b923" fill-opacity="0.24"/>
  <circle cx="343.0" cy="469.6" r="1.02" fill="#a0c8ff" fill-opacity="0.52"/>
  <circle cx="439.3" cy="118.7" r="0.74" fill="#e8b923" fill-opacity="0.3"/>
  <circle cx="137.2" cy="130.9" r="0.56" fill="#ffffff" fill-opacity="0.28"/>
  <circle cx="337.7" cy="213.6" r="0.42" fill="#a0c8ff" fill-opacity="0.24"/>
  <circle cx="49.8" cy="522.2" r="0.91" fill="#ffffff" fill-opacity="0.35"/>
  <circle cx="238.6" cy="252.4" r="0.61" fill="#e8b923" fill-opacity="0.53"/>
  <circle cx="367.3" cy="398.0" r="0.78" fill="#a0c8ff" fill-opacity="0.53"/>
  <circle cx="270.4" cy="281.8" r="0.88" fill="#e8b923" fill-opacity="0.46"/>
  <circle cx="446.2" cy="294.5" r="1.14" fill="#a0c8ff" fill-opacity="0.4"/>
  <circle cx="23.8" cy="147.0" r="0.73" fill="#e8b923" fill-opacity="0.32"/>
  <circle cx="129.1" cy="349.7" r="1.17" fill="#ffffff" fill-opacity="0.37"/>
  <rect x="6" y="6" width="1188" height="618" rx="10" fill="none" stroke="#b8860b" stroke-width="4"/>
  <g transform="translate(70 15)">
    <rect x="6" y="6" width="588" height="588" rx="10" fill="none" stroke="#f59e0b" stroke-width="3" stroke-opacity="0.85"/>
    <text x="40" y="98" font-family="'Inter','SF Pro Display','Segoe UI','Liberation Sans','DejaVu Sans',system-ui,sans-serif" font-size="62" font-weight="800" fill="#facc15" letter-spacing="-1.5">DP19</text>
    <text x="42" y="146" font-family="'Inter','SF Pro Display','Segoe UI','Liberation Sans','DejaVu Sans',system-ui,sans-serif" font-size="40" font-weight="700" fill="#f59e0b" letter-spacing="6">Ap</text>
    <text x="588" y="62" font-family="'Inter','SF Pro Display','Segoe UI','Liberation Sans','DejaVu Sans',system-ui,sans-serif" font-size="12" font-weight="700" fill="#f59e0b" letter-spacing="3" text-anchor="end">COMMUNITY</text>
    <line x1="500" y1="74" x2="588" y2="74" stroke="#f59e0b" stroke-width="1.2" stroke-opacity="0.7"/>
    <svg x="170" y="170" width="260" height="260" viewBox="0 0 24 24" fill="none" stroke="#f59e0b">
      <path d="M4 10 L4 14 L13 17 L13 7 Z" stroke="#f59e0b" stroke-width="2" fill="#f59e0b" fill-opacity="0.85" stroke-linejoin="round"/><rect x="13" y="9.5" width="3" height="5" stroke="#f59e0b" stroke-width="1.8" fill="none" rx="0.5"/><path d="M17 9 Q19 12 17 15" stroke="#f59e0b" stroke-width="1.7" fill="none" stroke-linecap="round"/><path d="M19.5 8 Q22 12 19.5 16" stroke="#f59e0b" stroke-width="1.6" fill="none" stroke-linecap="round" stroke-opacity="0.75"/>
    </svg>
    <text x="300" y="510" font-family="'Inter','SF Pro Display','Segoe UI','Liberation Sans','DejaVu Sans',system-ui,sans-serif" font-size="26" font-weight="700" fill="#ffffff" text-anchor="middle">Amplifying Presence</text>
    <line x1="200" y1="544" x2="400" y2="544" stroke="#f59e0b" stroke-width="1" stroke-opacity="0.45"/>
    <text x="300" y="572" font-family="'Inter','SF Pro Display','Segoe UI','Liberation Sans','DejaVu Sans',system-ui,sans-serif" font-size="11" font-weight="700" fill="#f59e0b" letter-spacing="3" text-anchor="middle">COMMUNITY</text>
  </g>
  <rect x="690" y="6" width="504" height="618" fill="#f59e0b" fill-opacity="0.07"/>
  <line x1="690" y1="6" x2="690" y2="624" stroke="#f59e0b" stroke-width="2" stroke-opacity="0.6"/>
  <text x="720" y="120" font-family="'Inter','SF Pro Display','Segoe UI','Liberation Sans','DejaVu Sans',system-ui,sans-serif" font-size="32" font-weight="800" fill="#facc15" letter-spacing="2">DP19</text>
  <text x="720" y="170" font-family="'Inter','SF Pro Display','Segoe UI','Liberation Sans','DejaVu Sans',system-ui,sans-serif" font-size="32" font-weight="700" fill="#f59e0b" letter-spacing="6">Ap</text>
  <text x="640" y="240" font-family=''Inter','SF Pro Display','Segoe UI','Liberation Sans','DejaVu Sans',system-ui,sans-serif' font-size="56" font-weight="700" fill="#ffffff">Amplifying Presence</text>
  <text x="720" y="500" font-family="'Inter','SF Pro Display','Segoe UI','Liberation Sans','DejaVu Sans',system-ui,sans-serif" font-size="14" font-weight="700" fill="#f59e0b" letter-spacing="3">COMMUNITY</text>
  <text x="720" y="555" font-family="'Inter','SF Pro Display','Segoe UI','Liberation Sans','DejaVu Sans',system-ui,sans-serif" font-size="14" font-weight="500" fill="#a0a0a8">Desirable Properties — Meta-Layer</text>
  <circle cx="32" cy="598" r="5" fill="#facc15"/>
  <circle cx="1168" cy="598" r="5" fill="#f59e0b"/>
</svg>
