<svg xmlns="http://www.w3.org/2000/svg" viewBox="0 0 1200 630" width="1200" height="630" role="img" aria-labelledby="t">
  <title id="t">DP22 — Epistemic Continuity</title>
  <rect width="1200" height="630" fill="#0a0e1a"/>
  <circle cx="94.2" cy="540.9" r="0.69" fill="#a0c8ff" fill-opacity="0.49"/>
  <circle cx="394.2" cy="58.1" r="1.19" fill="#e8b923" fill-opacity="0.32"/>
  <circle cx="50.7" cy="173.5" r="0.98" fill="#e8b923" fill-opacity="0.49"/>
  <circle cx="198.4" cy="105.3" r="0.95" fill="#ffffff" fill-opacity="0.43"/>
  <circle cx="106.0" cy="343.8" r="0.43" fill="#a0c8ff" fill-opacity="0.31"/>
  <circle cx="374.7" cy="406.0" r="0.78" fill="#a0c8ff" fill-opacity="0.32"/>
  <circle cx="272.7" cy="83.1" r="0.94" fill="#ffffff" fill-opacity="0.51"/>
  <circle cx="401.3" cy="313.4" r="1.15" fill="#ffffff" fill-opacity="0.27"/>
  <circle cx="68.5" cy="343.4" r="1.15" fill="#a0c8ff" fill-opacity="0.32"/>
  <circle cx="461.9" cy="390.6" r="0.66" fill="#ffffff" fill-opacity="0.47"/>
  <circle cx="397.7" cy="183.6" r="0.8" fill="#a0c8ff" fill-opacity="0.23"/>
  <circle cx="138.8" cy="138.8" r="0.52" fill="#ffffff" fill-opacity="0.22"/>
  <circle cx="284.3" cy="39.8" r="0.77" fill="#ffffff" fill-opacity="0.3"/>
  <circle cx="452.1" cy="438.8" r="0.73" fill="#ffffff" fill-opacity="0.37"/>
  <circle cx="172.1" cy="172.9" r="1.14" fill="#ffffff" fill-opacity="0.29"/>
  <circle cx="299.0" cy="121.4" r="0.66" fill="#ffffff" fill-opacity="0.45"/>
  <circle cx="428.7" cy="239.9" r="0.7" fill="#e8b923" fill-opacity="0.36"/>
  <circle cx="500.4" cy="417.0" r="1.05" fill="#ffffff" fill-opacity="0.48"/>
  <rect x="6" y="6" width="1188" height="618" rx="10" fill="none" stroke="#b8860b" stroke-width="4"/>
  <g transform="translate(70 15)">
    <rect x="6" y="6" width="588" height="588" rx="10" fill="none" stroke="#f59e0b" stroke-width="3" stroke-opacity="0.85"/>
    <text x="40" y="98" font-family="'Inter','SF Pro Display','Segoe UI','Liberation Sans','DejaVu Sans',system-ui,sans-serif" font-size="62" font-weight="800" fill="#facc15" letter-spacing="-1.5">DP22</text>
    <text x="42" y="146" font-family="'Inter','SF Pro Display','Segoe UI','Liberation Sans','DejaVu Sans',system-ui,sans-serif" font-size="40" font-weight="700" fill="#f59e0b" letter-spacing="6">Ep</text>
    <text x="588" y="62" font-family="'Inter','SF Pro Display','Segoe UI','Liberation Sans','DejaVu Sans',system-ui,sans-serif" font-size="12" font-weight="700" fill="#f59e0b" letter-spacing="3" text-anchor="end">COMMUNITY</text>
    <line x1="500" y1="74" x2="588" y2="74" stroke="#f59e0b" stroke-width="1.2" stroke-opacity="0.7"/>
    <svg x="170" y="170" width="260" height="260" viewBox="0 0 24 24" fill="none" stroke="#f59e0b">
      <path d="M12 3 Q6 6 12 9 Q18 12 12 15 Q6 18 12 21" stroke="#f59e0b" stroke-width="2.1" fill="none" stroke-linecap="round"/><path d="M12 3 Q18 6 12 9 Q6 12 12 15 Q18 18 12 21" stroke="#f59e0b" stroke-width="2.1" fill="none" stroke-linecap="round"/><line x1="9" y1="6" x2="15" y2="6" stroke="#f59e0b" stroke-width="1.4" stroke-linecap="round"/><line x1="9" y1="12" x2="15" y2="12" stroke="#f59e0b" stroke-width="1.4" stroke-linecap="round"/><line x1="9" y1="18" x2="15" y2="18" stroke="#f59e0b" stroke-width="1.4" stroke-linecap="round"/><circle cx="12" cy="3" r="1.1" fill="#f59e0b"/><circle cx="12" cy="21" r="1.1" fill="#f59e0b"/>
    </svg>
    <text x="300" y="510" font-family="'Inter','SF Pro Display','Segoe UI','Liberation Sans','DejaVu Sans',system-ui,sans-serif" font-size="26" font-weight="700" fill="#ffffff" text-anchor="middle">Epistemic Continuity</text>
    <line x1="200" y1="544" x2="400" y2="544" stroke="#f59e0b" stroke-width="1" stroke-opacity="0.45"/>
    <text x="300" y="572" font-family="'Inter','SF Pro Display','Segoe UI','Liberation Sans','DejaVu Sans',system-ui,sans-serif" font-size="11" font-weight="700" fill="#f59e0b" letter-spacing="3" text-anchor="middle">COMMUNITY</text>
  </g>
  <rect x="690" y="6" width="504" height="618" fill="#f59e0b" fill-opacity="0.07"/>
  <line x1="690" y1="6" x2="690" y2="624" stroke="#f59e0b" stroke-width="2" stroke-opacity="0.6"/>
  <text x="720" y="120" font-family="'Inter','SF Pro Display','Segoe UI','Liberation Sans','DejaVu Sans',system-ui,sans-serif" font-size="32" font-weight="800" fill="#facc15" letter-spacing="2">DP22</text>
  <text x="720" y="170" font-family="'Inter','SF Pro Display','Segoe UI','Liberation Sans','DejaVu Sans',system-ui,sans-serif" font-size="32" font-weight="700" fill="#f59e0b" letter-spacing="6">Ep</text>
  <text x="640" y="240" font-family=''Inter','SF Pro Display','Segoe UI','Liberation Sans','DejaVu Sans',system-ui,sans-serif' font-size="56" font-weight="700" fill="#ffffff">Epistemic Continuity</text>
  <text x="720" y="500" font-family="'Inter','SF Pro Display','Segoe UI','Liberation Sans','DejaVu Sans',system-ui,sans-serif" font-size="14" font-weight="700" fill="#f59e0b" letter-spacing="3">COMMUNITY</text>
  <text x="720" y="555" font-family="'Inter','SF Pro Display','Segoe UI','Liberation Sans','DejaVu Sans',system-ui,sans-serif" font-size="14" font-weight="500" fill="#a0a0a8">Desirable Properties — Meta-Layer</text>
  <circle cx="32" cy="598" r="5" fill="#facc15"/>
  <circle cx="1168" cy="598" r="5" fill="#f59e0b"/>
</svg>
